<?xml version="1.0"?>
<svg width="600" height="420" xmlns="http://www.w3.org/2000/svg" version="1.1">
  <rect fill="url(#grad1)" height="179"  rx="80" ry="80" width="439" x="87" xmlns="http://www.w3.org/2000/svg" y="240" style="background: rgb(224,234,251);background: linear-gradient(90deg, rgba(224,234,251,1) 0%, rgba(200,179,233,1) 100%);"/>
  <g>
   <path d="m421.5,111.5c2.88,15.72 3.55,31.39 2,47c-1.7,-3.35 -3.36,-6.68 -5,-10c2.17,-14.96 1,-29.62 -3.5,-44c-1.36,-3.4 -3.19,-6.4 -5.5,-9c-9.7,-15.17 -23.03,-26.34 -40,-33.5c-22.5,-8.51 -45.5,-9.84 -69,-4c-1.44,0.38 -2.44,1.21 -3,2.5c-2.15,1.24 -4.48,2.24 -7,3c-1.37,-0.16 -2.71,0.01 -4,0.5c-19.85,11.65 -32.51,28.48 -38,50.5c-8.2,6.05 -13.7,14.05 -16.5,24c-0.71,0.88 -1.54,1.55 -2.5,2c7.82,-20.64 17.98,-39.97 30.5,-58c23.86,-25.18 53.02,-35.01 87.5,-29.5c30.32,5.7 53.49,21.54 69.5,47.5c1.8,3.57 3.3,7.24 4.5,11z" fill="#333333"  opacity="0.91"/>
  </g>
  <g>
   <path d="m397.5,126.5c-5,-3.83 -10.33,-7.17 -16,-10c1.32,-6.11 2.32,-12.27 3,-18.5c-0.39,-10.11 -4.72,-18.11 -13,-24c-6.6,-4.55 -13.43,-8.72 -20.5,-12.5c-0.94,0.41 -1.61,1.07 -2,2c-1.32,-2.49 -3.49,-3.66 -6.5,-3.5c-15.8,-1.59 -30.8,1.08 -45,8c-9.73,8.66 -15.39,19.49 -17,32.5c-4.7,1.21 -9.37,2.54 -14,4c2.95,-9.34 6.78,-18.34 11.5,-27c3.94,-5.01 8.1,-9.68 12.5,-14c2.52,-0.76 4.85,-1.76 7,-3c5.54,-0.48 10.88,-1.64 16,-3.5c29.73,-4.7 55.56,3.13 77.5,23.5c5.58,6.97 8.41,14.97 8.5,24c-0.97,7.31 -1.63,14.64 -2,22z" fill="#4e4e4e" />
  </g>
  <g>
   <path d="m381.5,116.5c-6.43,-3.55 -13.09,-6.55 -20,-9c3.36,-15.26 -0.47,-28.26 -11.5,-39c-1.88,0.59 -2.88,1.93 -3,4c-0.12,-2.23 -0.95,-4.06 -2.5,-5.5c-11.06,-0.85 -21.72,0.82 -32,5c-7.84,6.68 -12.18,15.18 -13,25.5c-6.38,0.67 -12.72,1.67 -19,3c1.61,-13.01 7.27,-23.84 17,-32.5c14.2,-6.92 29.2,-9.59 45,-8c3.01,-0.16 5.18,1.01 6.5,3.5c0.39,-0.93 1.06,-1.59 2,-2c7.07,3.78 13.9,7.95 20.5,12.5c8.28,5.89 12.61,13.89 13,24c-0.68,6.23 -1.68,12.39 -3,18.5z" fill="#545454" />
  </g>
  <g>
   <path d="m361.5,107.5c-19.96,-7.44 -40.62,-10.77 -62,-10c0.82,-10.32 5.16,-18.82 13,-25.5c10.28,-4.18 20.94,-5.85 32,-5c1.55,1.44 2.38,3.27 2.5,5.5c0.12,-2.07 1.12,-3.41 3,-4c11.03,10.74 14.86,23.74 11.5,39z" fill="#5a5a5a" />
  </g>
  <g id="svg_10">
   <path d="m409.5,95.5c1.75,3.67 3.08,7.5 4,11.5c-0.8,10.83 -1.63,21.66 -2.5,32.5c-4.08,-4.89 -8.58,-9.22 -13.5,-13c0.37,-7.36 1.03,-14.69 2,-22c-0.09,-9.03 -2.92,-17.03 -8.5,-24c-21.94,-20.37 -47.77,-28.2 -77.5,-23.5c-5.12,1.86 -10.46,3.02 -16,3.5c0.56,-1.29 1.56,-2.12 3,-2.5c23.5,-5.84 46.5,-4.51 69,4c16.97,7.16 30.3,18.33 40,33.5z" fill="#444444" id="svg_11"/>
  </g>
  <g id="svg_12">
   <path d="m290.5,63.5c-4.4,4.32 -8.56,8.99 -12.5,14c-4.72,8.66 -8.55,17.66 -11.5,27c-4.46,2.06 -8.79,4.4 -13,7c-1.72,0.81 -3.39,1.81 -5,3c5.49,-22.02 18.15,-38.85 38,-50.5c1.29,-0.49 2.63,-0.66 4,-0.5z" fill="#424242" id="svg_13"/>
  </g>
  <g id="svg_14">
   <path d="m418.5,148.5c1.64,3.32 3.3,6.65 5,10c1.83,6.52 3.5,12.85 5,19c0.05,12.23 -5.61,20.56 -17,25c2.28,-3.14 4.44,-6.47 6.5,-10c0.33,-5.02 0.83,-10.02 1.5,-15c-5.33,-8.83 -12.49,-15.83 -21.5,-21c-9.7,-5.04 -19.53,-9.71 -29.5,-14c-25.61,-10.12 -52.28,-15.12 -80,-15c-16.44,-1.2 -32.1,1.63 -47,8.5c-0.83,0.83 -1.67,1.67 -2.5,2.5c-0.71,3.75 -1.71,7.42 -3,11c0.22,4.84 0.05,9.51 -0.5,14c-6.44,-6.54 -8.44,-14.21 -6,-23c0.96,-0.45 1.79,-1.12 2.5,-2c2.8,-9.95 8.3,-17.95 16.5,-24c1.61,-1.19 3.28,-2.19 5,-3c7.87,-1.94 15.54,-4.44 23,-7.5c55.27,-9.48 102.6,5.35 142,44.5z" fill="#0c0c0c" id="svg_15"/>
  </g>
  <g id="svg_16">
   <path d="m409.5,95.5c2.31,2.6 4.14,5.6 5.5,9c4.5,14.38 5.67,29.04 3.5,44c-39.4,-39.15 -86.73,-53.98 -142,-44.5c-7.46,3.06 -15.13,5.56 -23,7.5c4.21,-2.6 8.54,-4.94 13,-7c4.63,-1.46 9.3,-2.79 14,-4c6.28,-1.33 12.62,-2.33 19,-3c21.38,-0.77 42.04,2.56 62,10c6.91,2.45 13.57,5.45 20,9c5.67,2.83 11,6.17 16,10c4.92,3.78 9.42,8.11 13.5,13c0.87,-10.84 1.7,-21.67 2.5,-32.5c-0.92,-4 -2.25,-7.83 -4,-11.5z" fill="#393939" id="svg_17"/>
  </g>
  <g id="svg_18">
   <path d="m421.5,111.5c3.02,6.91 4.86,14.25 5.5,22c1.3,14.63 1.8,29.3 1.5,44c-1.5,-6.15 -3.17,-12.48 -5,-19c1.55,-15.61 0.88,-31.28 -2,-47z" fill="#262626" id="svg_19" opacity="0.95"/>
  </g>
  <g id="svg_20">
   <path d="m288.5,127.5c-2.33,2.67 -4.67,5.33 -7,8c-4.82,4.24 -9.82,8.24 -15,12c-6.52,-0.32 -12.85,0.01 -19,1c-1.45,3.21 -1.11,6.21 1,9c-0.44,1.24 -1.11,2.24 -2,3c-1.57,2.14 -2.91,4.48 -4,7c-1.72,0.13 -3.38,0.46 -5,1c-1.41,-0.47 -2.07,-1.47 -2,-3c0,-0.67 0,-1.33 0,-2c0.55,-4.49 0.72,-9.16 0.5,-14c1.29,-3.58 2.29,-7.25 3,-11c0.83,-0.83 1.67,-1.67 2.5,-2.5c14.9,-6.87 30.56,-9.7 47,-8.5z" fill="#1f0d03" id="svg_21"/>
  </g>
  <g id="svg_22">
   <path d="m288.5,127.5c27.72,-0.12 54.39,4.88 80,15c4.37,4.37 8.37,9.04 12,14c-9.46,-2.81 -19.13,-3.64 -29,-2.5c-1.11,2.74 -1.28,5.57 -0.5,8.5c7.42,0.82 14.92,1.32 22.5,1.5c2.83,1.6 5.83,2.77 9,3.5c1.74,2.06 3.41,4.06 5,6c-11.6,-3.48 -23.44,-5.81 -35.5,-7c-5.24,-0.76 -9.41,0.91 -12.5,5c-0.82,0.89 -1.82,1.22 -3,1c-7.14,-2.16 -14.47,-3.83 -22,-5c-1.43,-6.25 -5.43,-10.09 -12,-11.5c-10.31,-3.98 -20.97,-6.48 -32,-7.5c1.48,-3.39 4.15,-4.72 8,-4c9.34,1.5 18.18,4.5 26.5,9c5.23,-2.88 5.73,-6.38 1.5,-10.5c-7.79,-4.21 -16.12,-6.71 -25,-7.5c2.33,-2.67 4.67,-5.33 7,-8z" fill="#8c613c" id="svg_23"/>
  </g>
   <path d="m281.5,135.5c8.88,0.79 17.21,3.29 25,7.5c4.23,4.12 3.73,7.62 -1.5,10.5c-8.32,-4.5 -17.16,-7.5 -26.5,-9c-3.85,-0.72 -6.52,0.61 -8,4c-1.6,0.27 -2.93,-0.07 -4,-1c5.18,-3.76 10.18,-7.76 15,-12z" fill="#503927" id="svg_25"/>
  <g id="svg_24">
  </g>
  <g id="svg_26">
   <path d="m368.5,142.5c9.97,4.29 19.8,8.96 29.5,14c9.01,5.17 16.17,12.17 21.5,21c-0.67,4.98 -1.17,9.98 -1.5,15c-2.06,3.53 -4.22,6.86 -6.5,10c0,0.33 0,0.67 0,1c-0.79,1.6 -2.12,2.27 -4,2c-0.65,-0.3 -1.32,-0.64 -2,-1c-0.67,-3.81 -1.33,-7.48 -2,-11c0,-0.67 0,-1.33 0,-2c0,-0.67 -0.33,-1 -1,-1c3.51,-1.88 4.84,-4.88 4,-9c-4.08,-0.88 -7.75,-2.54 -11,-5c-4.04,-7.42 -9.04,-14.09 -15,-20c-3.63,-4.96 -7.63,-9.63 -12,-14z" fill="#1e0d02" id="svg_27"/>
  </g>
  <g id="svg_28">
   <path d="m247.5,148.5c6.15,-0.99 12.48,-1.32 19,-1c1.07,0.93 2.4,1.27 4,1c11.03,1.02 21.69,3.52 32,7.5c6.57,1.41 10.57,5.25 12,11.5c-1.07,0.93 -2.4,1.27 -4,1c-0.06,-2.2 -0.73,-4.2 -2,-6c-15.03,-7.59 -31.03,-11.09 -48,-10.5c-1.07,0.85 -2.07,1.69 -3,2.5c-0.33,0 -0.67,0 -1,0c-2.31,-1.41 -4.31,-3.25 -6,-5.5c-0.95,-0.48 -1.95,-0.65 -3,-0.5z" fill="#211f1d" id="svg_29"/>
  </g>
  <g id="svg_30">
   <path d="m310.5,168.5c0,0.67 0,1.33 0,2c-1.01,4.1 -2.01,8.1 -3,12c-2.8,2.35 -4.13,1.35 -4,-3c0.56,-6.71 -2.1,-12.21 -8,-16.5c-3.97,-2.6 -8.31,-4.1 -13,-4.5c-4.02,-0.75 -8.18,-1.42 -12.5,-2c-0.94,0.41 -1.61,1.07 -2,2c-1.49,-1.23 -2.99,-1.23 -4.5,0c-1.62,-1.82 -3.62,-3.15 -6,-4c0.93,-0.81 1.93,-1.65 3,-2.5c16.97,-0.59 32.97,2.91 48,10.5c1.27,1.8 1.94,3.8 2,6z" fill="#7f5a3e" id="svg_31"/>
  </g>
  <g id="svg_32">
   <path d="m380.5,156.5c5.96,5.91 10.96,12.58 15,20c-2.9,-0.63 -5.56,-1.63 -8,-3c-1.59,-1.94 -3.26,-3.94 -5,-6c-3.17,-0.73 -6.17,-1.9 -9,-3.5c-7.58,-0.18 -15.08,-0.68 -22.5,-1.5c-0.78,-2.93 -0.61,-5.76 0.5,-8.5c9.87,-1.14 19.54,-0.31 29,2.5z" fill="#513928" id="svg_33"/>
  </g>
  <g id="svg_34">
   <path d="m256.5,154.5c0.33,0 0.67,0 1,0c2.38,0.85 4.38,2.18 6,4c0.41,2.78 -0.42,3.44 -2.5,2c-1.71,0.64 -1.88,1.64 -0.5,3c-3.87,0.64 -4.54,2.14 -2,4.5c-1.45,1.12 -3.12,1.78 -5,2c2.09,1.35 4.43,1.85 7,1.5c-0.17,0.99 0.16,1.66 1,2c0,0.67 0,1.33 0,2c-4.44,-1.55 -6.77,0.11 -7,5c-1,0 -2,0 -3,0c0.16,-3.02 0,-6.02 -0.5,-9c-0.38,-0.56 -0.88,-0.89 -1.5,-1c-0.07,-4.19 0.76,-8.19 2.5,-12c1.25,-1.69 2.75,-3.03 4.5,-4z" fill="#906f57" id="svg_35"/>
  </g>
  <g id="svg_36">
   <path d="m282.5,158.5c-4.65,-0.32 -9.15,0.35 -13.5,2c-0.77,-0.15 -1.44,-0.48 -2,-1c-1.76,4.08 -4.26,7.58 -7.5,10.5c0.56,0.38 0.89,0.88 1,1.5c-2.57,0.35 -4.91,-0.15 -7,-1.5c1.88,-0.22 3.55,-0.88 5,-2c-2.54,-2.36 -1.87,-3.86 2,-4.5c-1.38,-1.36 -1.21,-2.36 0.5,-3c2.08,1.44 2.91,0.78 2.5,-2c1.51,-1.23 3.01,-1.23 4.5,0c0.39,-0.93 1.06,-1.59 2,-2c4.32,0.58 8.48,1.25 12.5,2z" fill="#705542" id="svg_37"/>
  </g>
  <g id="svg_38">
   <path d="m287.5,161.5c-2.33,0.67 -4.67,1.33 -7,2c-9.86,3.73 -12.53,10.4 -8,20c-3.66,-1.5 -7,-3.5 -10,-6c-0.33,-0.67 -0.67,-1.33 -1,-2c0,-0.67 0,-1.33 0,-2c5.7,-10.27 14.37,-14.27 26,-12z" fill="#b4b3b4" id="svg_39"/>
  </g>
  <g id="svg_40">
   <path d="m282.5,158.5c4.69,0.4 9.03,1.9 13,4.5c5.9,4.29 8.56,9.79 8,16.5c-1.45,-9.45 -6.78,-15.45 -16,-18c-11.63,-2.27 -20.3,1.73 -26,12c-0.84,-0.34 -1.17,-1.01 -1,-2c-0.11,-0.62 -0.44,-1.12 -1,-1.5c3.24,-2.92 5.74,-6.42 7.5,-10.5c0.56,0.52 1.23,0.85 2,1c4.35,-1.65 8.85,-2.32 13.5,-2z" fill="#342e29" id="svg_41"/>
  </g>
  <g id="svg_42">
   <path d="m235.5,165.5c-0.07,1.53 0.59,2.53 2,3c0.11,0.62 0.44,1.12 1,1.5c-1.05,2.38 -1.72,4.88 -2,7.5c-0.72,0.42 -1.22,1.08 -1.5,2c-2.04,-4.83 -4.2,-9.49 -6.5,-14c2.33,-1.33 4.67,-1.33 7,0z" fill="#e9c5a8" id="svg_43"/>
  </g>
  <g id="svg_44">
   <path d="m387.5,173.5c2.44,1.37 5.1,2.37 8,3c3.25,2.46 6.92,4.12 11,5c0.84,4.12 -0.49,7.12 -4,9c-1.7,-0.03 -3.03,-0.69 -4,-2c0.43,-3.36 -0.57,-6.19 -3,-8.5c-16.34,-6.87 -33.34,-9.87 -51,-9c-1.56,0.72 -2.56,1.89 -3,3.5c-1.9,-0.3 -3.57,-0.96 -5,-2c1.18,0.22 2.18,-0.11 3,-1c3.09,-4.09 7.26,-5.76 12.5,-5c12.06,1.19 23.9,3.52 35.5,7z" fill="#1f1d1c" id="svg_45"/>
  </g>
  <g id="svg_46">
   <path d="m287.5,161.5c9.22,2.55 14.55,8.55 16,18c-0.13,4.35 1.2,5.35 4,3c-0.4,3.22 -1.73,5.89 -4,8c-0.34,-0.84 -1.01,-1.17 -2,-1c2.72,-3.59 1.72,-5.92 -3,-7c-1.02,0.69 -2.02,1.36 -3,2c0.33,-1.33 0.67,-2.67 1,-4c2.52,-12.5 -2.82,-18.16 -16,-17c2.33,-0.67 4.67,-1.33 7,-2z" fill="#a39fa1" id="svg_47"/>
  </g>
  <g id="svg_48">
   <path d="m280.5,163.5c13.18,-1.16 18.52,4.5 16,17c0.44,-3.31 -0.23,-6.31 -2,-9c-0.8,0.46 -1.13,1.12 -1,2c-2.26,-3.55 -5.59,-5.21 -10,-5c-3.62,-1.94 -5.62,-0.94 -6,3c-1.4,1.28 -2.06,2.94 -2,5c0.22,2.19 0.88,4.19 2,6c-0.98,-0.64 -1.98,-1.31 -3,-2c-0.89,0.82 -1.22,1.82 -1,3c-0.33,0 -0.67,0 -1,0c-4.53,-9.6 -1.86,-16.27 8,-20z" fill="#485e9d" id="svg_49"/>
  </g>
  <g id="svg_50">
   <path d="m283.5,168.5c-0.48,4.88 -2.48,5.88 -6,3c0.38,-3.94 2.38,-4.94 6,-3z" fill="#dadbdc" id="svg_51"/>
  </g>
  <g id="svg_52">
   <path d="m398.5,188.5c0,0.67 0,1.33 0,2c-3.22,0.48 -6.55,0.48 -10,0c0.11,-0.62 0.44,-1.12 1,-1.5c-2.95,-0.11 -4.28,-1.61 -4,-4.5c-1.33,0 -2.67,0 -4,0c-0.79,-1.29 -1.79,-2.46 -3,-3.5c-3.94,-2.59 -8.27,-4.09 -13,-4.5c-10.31,-1.85 -18.31,1.82 -24,11c0.12,0.61 0.46,0.94 1,1c-1.44,1.32 -2.11,2.99 -2,5c-0.77,0.76 -1.27,1.76 -1.5,3c-0.5,-1.97 -0.66,-3.97 -0.5,-6c0.02,-4.77 0.69,-9.44 2,-14c0.33,-0.67 0.67,-1.33 1,-2c0.44,-1.61 1.44,-2.78 3,-3.5c17.66,-0.87 34.66,2.13 51,9c2.43,2.31 3.43,5.14 3,8.5z" fill="#7f5a3d" id="svg_53"/>
  </g>
  <g id="svg_54">
   <path d="m336.5,177.5c-0.37,2.2 -1.04,4.2 -2,6c-1.1,-1.06 -2.43,-1.89 -4,-2.5c-4.26,-0.37 -8.42,-1.21 -12.5,-2.5c-2.41,-0.02 -4.58,0.65 -6.5,2c1.43,-2.81 2.09,-5.81 2,-9c0.42,-0.62 1.08,-0.96 2,-1c5.95,1.6 11.95,3.1 18,4.5c1.62,0.24 2.62,1.07 3,2.5z" fill="#8e623d" id="svg_55"/>
  </g>
  <g id="svg_56">
   <path d="m283.5,168.5c4.41,-0.21 7.74,1.45 10,5c0.09,5.15 -1.91,9.15 -6,12c-0.33,0 -0.67,0 -1,0c-3.5,0.37 -6.5,-0.63 -9,-3c-1.12,-1.81 -1.78,-3.81 -2,-6c-0.06,-2.06 0.6,-3.72 2,-5c3.52,2.88 5.52,1.88 6,-3z" fill="#242529" id="svg_57"/>
  </g>
  <g id="svg_58">
   <path d="m314.5,167.5c7.53,1.17 14.86,2.84 22,5c1.43,1.04 3.1,1.7 5,2c-0.33,0.67 -0.67,1.33 -1,2c-1.46,-0.07 -2.79,0.27 -4,1c-0.38,-1.43 -1.38,-2.26 -3,-2.5c-6.05,-1.4 -12.05,-2.9 -18,-4.5c-0.92,0.04 -1.58,0.38 -2,1c-0.72,-0.42 -1.22,-1.08 -1.5,-2c-0.38,0.56 -0.88,0.89 -1.5,1c0,-0.67 0,-1.33 0,-2c1.6,0.27 2.93,-0.07 4,-1z" fill="#38332f" id="svg_59"/>
  </g>
  <g id="svg_60">
   <path d="m365.5,176.5c-3.02,-0.16 -6.02,0 -9,0.5c3.19,0.18 6.19,0.68 9,1.5c-9.76,-1.28 -17.43,2.05 -23,10c-0.54,-0.06 -0.88,-0.39 -1,-1c5.69,-9.18 13.69,-12.85 24,-11z" fill="#43362d" id="svg_61"/>
  </g>
  <g id="svg_62">
   <path d="m365.5,176.5c4.73,0.41 9.06,1.91 13,4.5c1.21,1.04 2.21,2.21 3,3.5c-0.71,0.9 -1.71,1.24 -3,1c-1.75,-1.75 -3.75,-3.09 -6,-4c-1.93,-1.79 -4.26,-2.79 -7,-3c-2.81,-0.82 -5.81,-1.32 -9,-1.5c2.98,-0.5 5.98,-0.66 9,-0.5z" fill="#292421" id="svg_63"/>
  </g>
  <g id="svg_64">
   <path d="m334.5,183.5c0,1 0,2 0,3c-1.86,0.04 -3.19,-0.79 -4,-2.5c-3.61,-1.05 -7.28,-1.88 -11,-2.5c-3.8,0.81 -7.13,2.48 -10,5c1.13,-1.81 1.8,-3.81 2,-6c1.92,-1.35 4.09,-2.02 6.5,-2c4.08,1.29 8.24,2.13 12.5,2.5c1.57,0.61 2.9,1.44 4,2.5z" fill="#b08969" id="svg_65"/>
  </g>
  <g id="svg_66">
   <path d="m365.5,178.5c2.74,0.21 5.07,1.21 7,3c-0.62,0.7 -0.62,1.7 0,3c-6.88,-6.19 -14.05,-6.52 -21.5,-1c-1.9,3.42 -2.74,7.09 -2.5,11c-2.31,-2.3 -4.98,-2.63 -8,-1c-0.11,-2.01 0.56,-3.68 2,-5c5.57,-7.95 13.24,-11.28 23,-10z" fill="#a3a2a6" id="svg_67"/>
  </g>
  <g id="svg_68">
   <path d="m374.5,195.5c0,1.67 0,3.33 0,5c-0.33,0 -0.67,0 -1,0c0.16,-1.7 -0.01,-3.37 -0.5,-5c-1.41,1.95 -3.25,3.28 -5.5,4c5.05,-8.24 2.71,-13.24 -7,-15c-1.73,-1.06 -3.4,-1.06 -5,0c0.93,-2.38 2.76,-3.38 5.5,-3c8.82,0.65 13.32,5.32 13.5,14z" fill="#4c68b0" id="svg_69"/>
  </g>
  <g id="svg_70">
   <path d="m228.5,165.5c2.3,4.51 4.46,9.17 6.5,14c0.28,-0.92 0.78,-1.58 1.5,-2c0.07,1.46 -0.27,2.79 -1,4c-1,0.03 -1.66,-0.47 -2,-1.5c-0.64,-2.25 -1.47,-4.41 -2.5,-6.5c-1.11,-1.54 -2.61,-2.2 -4.5,-2c0.9,2.89 2.23,5.56 4,8c0.89,6.97 1.22,13.97 1,21c-0.04,4.69 -0.37,9.36 -1,14c0.27,1.6 -0.07,2.93 -1,4c-3.14,-0.3 -5.31,-1.97 -6.5,-5c-1.98,-12.66 -1.98,-25.32 0,-38c1.09,-3.85 2.92,-7.18 5.5,-10z" fill="#c9a384" id="svg_71"/>
  </g>
  <g id="svg_72">
   <path d="m372.5,184.5c2.74,3.42 3.4,7.09 2,11c-0.18,-8.68 -4.68,-13.35 -13.5,-14c-2.74,-0.38 -4.57,0.62 -5.5,3c-4.27,1.58 -6.27,4.75 -6,9.5c0.2,1.88 0.53,3.71 1,5.5c-1.71,-1.13 -2.38,-2.8 -2,-5c-0.24,-3.91 0.6,-7.58 2.5,-11c7.45,-5.52 14.62,-5.19 21.5,1z" fill="#445488" id="svg_73"/>
  </g>
  <g id="svg_74">
   <path d="m372.5,181.5c2.25,0.91 4.25,2.25 6,4c2.66,3.99 4.33,8.32 5,13c0.26,2.49 -0.74,4.16 -3,5c-0.67,0.33 -1.33,0.67 -2,1c-2.93,0.8 -5.93,1.13 -9,1c1.86,-1.44 3.53,-3.1 5,-5c0,-1.67 0,-3.33 0,-5c1.4,-3.91 0.74,-7.58 -2,-11c-0.62,-1.3 -0.62,-2.3 0,-3z" fill="#b5b4b6" id="svg_75"/>
  </g>
  <g id="svg_76">
   <path d="m360.5,184.5c0.3,4.76 -1.7,6.09 -6,4c-0.07,-1.46 0.27,-2.79 1,-4c1.6,-1.06 3.27,-1.06 5,0z" fill="#dddedf" id="svg_77"/>
  </g>
  <g id="svg_78">
   <path d="m360.5,184.5c9.71,1.76 12.05,6.76 7,15c-3.71,2.29 -7.71,2.63 -12,1c-1.39,-2.29 -2.39,-4.79 -3,-7.5c0.03,-1.88 0.69,-3.38 2,-4.5c4.3,2.09 6.3,0.76 6,-4z" fill="#27272b" id="svg_79"/>
  </g>
  <g id="svg_80">
   <path d="m355.5,184.5c-0.73,1.21 -1.07,2.54 -1,4c-1.31,1.12 -1.97,2.62 -2,4.5c0.61,2.71 1.61,5.21 3,7.5c-1.73,1.06 -3.4,1.06 -5,0c0,-0.33 0,-0.67 0,-1c-0.47,-1.79 -0.8,-3.62 -1,-5.5c-0.27,-4.75 1.73,-7.92 6,-9.5z" fill="#4b69b6" id="svg_81"/>
  </g>
  <g id="svg_82">
   <path d="m247.5,148.5c1.05,-0.15 2.05,0.02 3,0.5c1.69,2.25 3.69,4.09 6,5.5c-1.75,0.97 -3.25,2.31 -4.5,4c-1.74,3.81 -2.57,7.81 -2.5,12c-0.56,3.88 -1.22,7.71 -2,11.5c0.83,0.83 1.67,1.67 2.5,2.5c1.15,-1.18 2.31,-1.18 3.5,0c14.9,4.95 30.24,7.78 46,8.5c1.82,-0.2 3.15,-1.03 4,-2.5c2.27,-2.11 3.6,-4.78 4,-8c0.99,-3.9 1.99,-7.9 3,-12c0.62,-0.11 1.12,-0.44 1.5,-1c0.28,0.92 0.78,1.58 1.5,2c0.09,3.19 -0.57,6.19 -2,9c-0.2,2.19 -0.87,4.19 -2,6c-2.67,8.18 -8.34,11.51 -17,10c-9.86,-0.77 -19.52,-2.44 -29,-5c-2.95,-0.87 -5.95,-1.87 -9,-3c-3.26,-0.63 -5.93,-2.3 -8,-5c-0.93,-3.9 -1.26,-7.9 -1,-12c0.61,-3.16 1.28,-6.33 2,-9.5c-0.07,-0.76 -0.4,-1.26 -1,-1.5c0.89,-0.76 1.56,-1.76 2,-3c-2.11,-2.79 -2.45,-5.79 -1,-9z" fill="#4f4c4b" id="svg_83"/>
  </g>
  <g id="svg_84">
   <path d="m301.5,189.5c-4.59,1.55 -8.92,1.21 -13,-1c2.2,0.38 3.87,-0.29 5,-2c1,-0.33 1.67,-1 2,-2c0.98,-0.64 1.98,-1.31 3,-2c4.72,1.08 5.72,3.41 3,7z" fill="#cbcaca" id="svg_85"/>
  </g>
  <g id="svg_86">
   <path d="m262.5,177.5c3,2.5 6.34,4.5 10,6c0.33,0 0.67,0 1,0c2.78,1.59 5.78,2.59 9,3c1.71,1.24 3.71,1.91 6,2c4.08,2.21 8.41,2.55 13,1c0.99,-0.17 1.66,0.16 2,1c-0.85,1.47 -2.18,2.3 -4,2.5c-15.76,-0.72 -31.1,-3.55 -46,-8.5c1.66,-4 4.66,-6.34 9,-7z" fill="#e5cab4" id="svg_87"/>
  </g>
  <g id="svg_88">
   <path d="m277.5,182.5c2.5,2.37 5.5,3.37 9,3c-1.07,0.93 -2.4,1.27 -4,1c-3.22,-0.41 -6.22,-1.41 -9,-3c-0.22,-1.18 0.11,-2.18 1,-3c1.02,0.69 2.02,1.36 3,2z" fill="#7290dc" id="svg_89"/>
  </g>
  <g id="svg_90">
   <path d="m249.5,170.5c0.62,0.11 1.12,0.44 1.5,1c0.5,2.98 0.66,5.98 0.5,9c1,0 2,0 3,0c0.23,-4.89 2.56,-6.55 7,-5c0.33,0.67 0.67,1.33 1,2c-4.34,0.66 -7.34,3 -9,7c-1.19,-1.18 -2.35,-1.18 -3.5,0c-0.83,-0.83 -1.67,-1.67 -2.5,-2.5c0.78,-3.79 1.44,-7.62 2,-11.5z" fill="#b29680" id="svg_91"/>
  </g>
  <g id="svg_92">
   <path d="m296.5,180.5c-0.33,1.33 -0.67,2.67 -1,4c-0.33,1 -1,1.67 -2,2c-1.57,-2.29 -3.57,-2.62 -6,-1c4.09,-2.85 6.09,-6.85 6,-12c-0.13,-0.88 0.2,-1.54 1,-2c1.77,2.69 2.44,5.69 2,9z" fill="#607dc4" id="svg_93"/>
  </g>
  <g id="svg_94">
   <path d="m235.5,181.5c-1.21,6.49 -2.54,12.82 -4,19c0.22,-7.03 -0.11,-14.03 -1,-21c-1.77,-2.44 -3.1,-5.11 -4,-8c1.89,-0.2 3.39,0.46 4.5,2c1.03,2.09 1.86,4.25 2.5,6.5c0.34,1.03 1,1.53 2,1.5z" fill="#ac8463" id="svg_95"/>
  </g>
  <g id="svg_96">
   <path d="m245.5,171.5c-0.26,4.1 0.07,8.1 1,12c-4.68,9.1 -6.01,18.77 -4,29c-2.95,-4.27 -4.28,-9.1 -4,-14.5c0.47,-7.21 1.3,-14.38 2.5,-21.5c1.05,-2.21 2.55,-3.87 4.5,-5z" fill="#bb9476" id="svg_97"/>
  </g>
  <g id="svg_98">
   <path d="m381.5,184.5c1.33,0 2.67,0 4,0c-0.28,2.89 1.05,4.39 4,4.5c-0.56,0.38 -0.89,0.88 -1,1.5c-1.15,0.29 -1.82,1.12 -2,2.5c0.44,1.82 0.78,3.66 1,5.5c-1.33,0 -2.67,0 -4,0c-0.67,-4.68 -2.34,-9.01 -5,-13c1.29,0.24 2.29,-0.1 3,-1z" fill="#413a35" id="svg_99"/>
  </g>
  <g id="svg_100">
   <path d="m403.5,191.5c0,0.67 0,1.33 0,2c0.17,5.34 0,10.68 -0.5,16c-1.52,5.02 -3.02,10.02 -4.5,15c-0.33,0 -0.67,0 -1,0c-0.45,-3.18 -1.78,-5.85 -4,-8c0,-0.33 0,-0.67 0,-1c4.49,-6.95 7.32,-14.62 8.5,-23c0.38,-0.56 0.88,-0.89 1.5,-1z" fill="#8d613c" id="svg_101"/>
  </g>
  <g id="svg_102">
   <path d="m223.5,180.5c2.89,-0.28 4.39,1.05 4.5,4c0.18,8.58 0.68,17.08 1.5,25.5c-0.55,0.93 -1.21,1.76 -2,2.5c-1.33,-1.33 -2.67,-2.67 -4,-4c-1.25,-9.35 -1.25,-18.68 0,-28z" fill="#e2be9f" id="svg_103"/>
  </g>
  <g id="svg_104">
   <path d="m403.5,193.5c0.67,3.52 1.33,7.19 2,11c0.68,0.36 1.35,0.7 2,1c-1.11,9.55 -3.11,18.88 -6,28c-0.68,-3.05 -1.68,-6.05 -3,-9c1.48,-4.98 2.98,-9.98 4.5,-15c0.5,-5.32 0.67,-10.66 0.5,-16z" fill="#311206" id="svg_105"/>
  </g>
  <g id="svg_106">
   <path d="m325.5,230.5c-1.54,-0.8 -3.21,-1.13 -5,-1c3.54,-1.7 6.71,-4.03 9.5,-7c1.56,-2.27 1.72,-4.6 0.5,-7c-2.23,4.46 -5.9,6.96 -11,7.5c-4.58,1.34 -8.25,0.17 -11,-3.5c4.64,0.9 9.31,1.06 14,0.5c3.35,-4.26 3.69,-8.76 1,-13.5c1.2,-2.64 3.2,-3.47 6,-2.5c3.93,5.56 5.43,11.73 4.5,18.5c-2.71,2.88 -5.54,5.54 -8.5,8z" fill="#cfaa8b" id="svg_107"/>
  </g>
  <g id="svg_108">
   <path d="m340.5,176.5c-1.31,4.56 -1.98,9.23 -2,14c-1.72,4.69 -0.72,8.86 3,12.5c7.55,2.65 15.22,4.98 23,7c5.59,1.42 11.26,2.25 17,2.5c3.23,1.28 6.56,1.28 10,0c2.3,1.03 2.97,0.37 2,-2c2.92,-6.36 4.59,-13.02 5,-20c0,-0.67 0,-1.33 0,-2c0.97,1.31 2.3,1.97 4,2c0.67,0 1,0.33 1,1c-0.62,0.11 -1.12,0.44 -1.5,1c-1.18,8.38 -4.01,16.05 -8.5,23c-3.6,0.84 -7.27,1.18 -11,1c-14.98,-1.66 -29.31,-5.33 -43,-11c-2.2,-1.35 -3.7,-3.35 -4.5,-6c-0.5,-4.32 -0.67,-8.65 -0.5,-13c0,-1 0,-2 0,-3c0.96,-1.8 1.63,-3.8 2,-6c1.21,-0.73 2.54,-1.07 4,-1z" fill="#4a4746" id="svg_109"/>
  </g>
  <g id="svg_110">
   <path d="m338.5,190.5c-0.16,2.03 0,4.03 0.5,6c0.23,-1.24 0.73,-2.24 1.5,-3c0.68,5.68 4.02,8.68 10,9c1.54,0.8 3.21,1.13 5,1c4.5,0.92 9.16,1.59 14,2c3.07,0.13 6.07,-0.2 9,-1c0.57,1.58 1.57,2.91 3,4c7.5,2.75 7.5,4.08 0,4c-5.74,-0.25 -11.41,-1.08 -17,-2.5c-7.78,-2.02 -15.45,-4.35 -23,-7c-3.72,-3.64 -4.72,-7.81 -3,-12.5z" fill="#e4c9b4" id="svg_111"/>
  </g>
  <g id="svg_112">
   <path d="m380.5,203.5c3.99,2.66 7.65,5.66 11,9c-3.44,1.28 -6.77,1.28 -10,0c7.5,0.08 7.5,-1.25 0,-4c-1.43,-1.09 -2.43,-2.42 -3,-4c0.67,-0.33 1.33,-0.67 2,-1z" fill="#b29682" id="svg_113"/>
  </g>
  <g id="svg_114">
   <path d="m373.5,200.5c0.33,0 0.67,0 1,0c-1.47,1.9 -3.14,3.56 -5,5c-4.84,-0.41 -9.5,-1.08 -14,-2c4.47,0.23 8.81,-0.43 13,-2c0.94,0.11 1.77,0.44 2.5,1c0.71,-0.88 1.54,-1.55 2.5,-2z" fill="#97b3e3" id="svg_115"/>
  </g>
  <g id="svg_116">
   <path d="m388.5,190.5c3.45,0.48 6.78,0.48 10,0c-0.41,6.98 -2.08,13.64 -5,20c0.97,2.37 0.3,3.03 -2,2c-3.35,-3.34 -7.01,-6.34 -11,-9c2.26,-0.84 3.26,-2.51 3,-5c1.33,0 2.67,0 4,0c-0.22,-1.84 -0.56,-3.68 -1,-5.5c0.18,-1.38 0.85,-2.21 2,-2.5z" fill="#8b6c56" id="svg_117"/>
  </g>
  <g id="svg_118">
   <path d="m373.5,200.5c-0.96,0.45 -1.79,1.12 -2.5,2c-0.73,-0.56 -1.56,-0.89 -2.5,-1c-4.19,1.57 -8.53,2.23 -13,2c-1.79,0.13 -3.46,-0.2 -5,-1c0,-0.67 0,-1.33 0,-2c1.6,1.06 3.27,1.06 5,0c4.29,1.63 8.29,1.29 12,-1c2.25,-0.72 4.09,-2.05 5.5,-4c0.49,1.63 0.66,3.3 0.5,5z" fill="#7894d7" id="svg_119"/>
  </g>
  <g id="svg_120">
   <path d="m348.5,194.5c-0.38,2.2 0.29,3.87 2,5c0,0.33 0,0.67 0,1c0,0.67 0,1.33 0,2c-5.98,-0.32 -9.32,-3.32 -10,-9c3.02,-1.63 5.69,-1.3 8,1z" fill="#cfcfd1" id="svg_121"/>
  </g>
  <g id="svg_122">
   <path d="m334.5,186.5c-0.17,4.35 0,8.68 0.5,13c0.8,2.65 2.3,4.65 4.5,6c-0.24,1.97 0.09,3.8 1,5.5c2.86,0.93 5.19,2.6 7,5c7.8,2.62 15.8,4.28 24,5c3.51,0.67 6.84,1.84 10,3.5c0.98,-2.59 1.31,-5.25 1,-8c3.73,0.18 7.4,-0.16 11,-1c0,0.33 0,0.67 0,1c0.94,2.61 1.1,5.28 0.5,8c-1.89,6.12 -4.06,12.12 -6.5,18c-6.57,2.85 -12.9,2.52 -19,-1c1.89,0.2 3.39,-0.46 4.5,-2c0.33,0.67 0.67,1.33 1,2c2.78,-2.73 4.95,-5.9 6.5,-9.5c-2.27,-2.29 -4.94,-3.96 -8,-5c-9.69,-2.54 -19.35,-5.21 -29,-8c-1.05,-1.38 -2.38,-2.38 -4,-3c-2.2,-2.89 -4.03,-6.05 -5.5,-9.5c-0.5,-3.65 -0.66,-7.32 -0.5,-11c-1,0 -2,0 -3,0c-0.14,-1.76 0.19,-3.43 1,-5c-0.28,-2.26 -1.28,-3.93 -3,-5c-4.21,-1.58 -8.54,-2.08 -13,-1.5c-1.33,2.33 -1.33,4.67 0,7c-2.25,0.75 -3.58,2.25 -4,4.5c-8.14,10.38 -18.81,14.05 -32,11c-9.77,-2.11 -19.77,-3.61 -30,-4.5c-1.43,-0.47 -2.6,-1.3 -3.5,-2.5c-0.3,7.26 1.53,13.93 5.5,20c-3.55,-1.61 -6.55,-3.94 -9,-7c-2.01,-10.23 -0.68,-19.9 4,-29c2.07,2.7 4.74,4.37 8,5c-1.32,2.73 -1.32,5.56 0,8.5c7.79,2.25 15.79,3.92 24,5c7,0.67 14,0.67 21,0c0.56,-0.38 0.89,-0.88 1,-1.5c0.98,-0.31 1.65,-0.98 2,-2c-3.48,-0.67 -6.81,-1.33 -10,-2c8.66,1.51 14.33,-1.82 17,-10c2.87,-2.52 6.2,-4.19 10,-5c3.72,0.62 7.39,1.45 11,2.5c0.81,1.71 2.14,2.54 4,2.5z" fill="#c69e82" id="svg_123"/>
  </g>
  <g id="svg_124">
   <path d="m254.5,188.5c3.05,1.13 6.05,2.13 9,3c-1.55,0.32 -2.22,1.32 -2,3c2.58,0.07 4.58,1.24 6,3.5c4.96,1.16 9.96,1.99 15,2.5c0,-1 0,-2 0,-3c3.88,-0.02 4.54,1.15 2,3.5c5.38,0.73 10.72,0.57 16,-0.5c-0.11,0.62 -0.44,1.12 -1,1.5c-7,0.67 -14,0.67 -21,0c-8.21,-1.08 -16.21,-2.75 -24,-5c-1.32,-2.94 -1.32,-5.77 0,-8.5z" fill="#e3bda3" id="svg_125"/>
  </g>
  <g id="svg_126">
   <path d="m328.5,185.5c0,5 0,10 0,15c-3.66,0.21 -7.16,-0.46 -10.5,-2c-2.14,0.58 -4.3,0.91 -6.5,1c0,-1.33 0,-2.67 0,-4c0.42,-2.25 1.75,-3.75 4,-4.5c-1.33,-2.33 -1.33,-4.67 0,-7c4.46,-0.58 8.79,-0.08 13,1.5z" fill="#f3d1b5" id="svg_127"/>
  </g>
  <g id="svg_128">
   <path d="m263.5,191.5c9.48,2.56 19.14,4.23 29,5c3.19,0.67 6.52,1.33 10,2c-0.35,1.02 -1.02,1.69 -2,2c-5.28,1.07 -10.62,1.23 -16,0.5c2.54,-2.35 1.88,-3.52 -2,-3.5c0,1 0,2 0,3c-5.04,-0.51 -10.04,-1.34 -15,-2.5c-1.42,-2.26 -3.42,-3.43 -6,-3.5c-0.22,-1.68 0.45,-2.68 2,-3z" fill="#f2cfb6" id="svg_129"/>
  </g>
  <g id="svg_130">
   <path d="m293.5,186.5c-1.13,1.71 -2.8,2.38 -5,2c-2.29,-0.09 -4.29,-0.76 -6,-2c1.6,0.27 2.93,-0.07 4,-1c0.33,0 0.67,0 1,0c2.43,-1.62 4.43,-1.29 6,1z" fill="#90aee1" id="svg_131"/>
  </g>
  <g id="svg_132">
   <path d="m339.5,205.5c13.69,5.67 28.02,9.34 43,11c0.31,2.75 -0.02,5.41 -1,8c-3.16,-1.66 -6.49,-2.83 -10,-3.5c-8.2,-0.72 -16.2,-2.38 -24,-5c-1.81,-2.4 -4.14,-4.07 -7,-5c-0.91,-1.7 -1.24,-3.53 -1,-5.5z" fill="#eac4aa" id="svg_133"/>
  </g>
  <g id="svg_134">
   <path d="m411.5,203.5c2.51,-0.45 4.51,0.22 6,2c-1.65,11.42 -4.31,22.58 -8,33.5c-2.57,6.44 -7.24,10.28 -14,11.5c0.54,-1.62 0.87,-3.28 1,-5c2.03,-3.72 3.69,-7.72 5,-12c2.89,-9.12 4.89,-18.45 6,-28c1.88,0.27 3.21,-0.4 4,-2z" fill="#8e623c" id="svg_135"/>
  </g>
  <g id="svg_136">
   <path d="m242.5,167.5c-0.89,3.07 -2.06,6.07 -3.5,9c-0.87,5.04 -1.71,10.04 -2.5,15c-1.16,7.16 -1.32,14.49 -0.5,22c3.71,6.47 7.05,13.13 10,20c2.53,6.83 4.37,13.83 5.5,21c-3,3.33 -6,6.67 -9,10c0.38,-6.68 0.55,-13.34 0.5,-20c-3.67,-10.68 -7.34,-21.34 -11,-32c-0.28,0.92 -0.78,1.58 -1.5,2c0.63,-4.64 0.96,-9.31 1,-14c1.46,-6.18 2.79,-12.51 4,-19c0.73,-1.21 1.07,-2.54 1,-4c0.28,-2.62 0.95,-5.12 2,-7.5c-0.56,-0.38 -0.89,-0.88 -1,-1.5c1.62,-0.54 3.28,-0.87 5,-1z" fill="#462812" id="svg_137"/>
  </g>
  <g id="svg_138">
   <path d="m308.5,219.5c2.75,3.67 6.42,4.84 11,3.5c5.1,-0.54 8.77,-3.04 11,-7.5c1.22,2.4 1.06,4.73 -0.5,7c-2.79,2.97 -5.96,5.3 -9.5,7c-3.34,0.03 -6.5,-0.63 -9.5,-2c-0.33,0.33 -0.67,0.67 -1,1c-2.12,-0.5 -4.29,-1.5 -6.5,-3c0.44,0.06 0.77,-0.1 1,-0.5c-3.39,-3.94 -4.56,-8.44 -3.5,-13.5c0.67,-1.33 1.33,-1.33 2,0c0.55,3.69 2.38,6.36 5.5,8z" fill="#946946" id="svg_139"/>
  </g>
  <g id="svg_140">
   <path d="m417.5,205.5c0.72,0.42 1.22,1.08 1.5,2c-0.1,16.56 -5.1,31.56 -15,45c-2.7,2.97 -5.87,3.63 -9.5,2c-0.07,-1.46 0.27,-2.79 1,-4c6.76,-1.22 11.43,-5.06 14,-11.5c3.69,-10.92 6.35,-22.08 8,-33.5z" fill="#a87f5e" id="svg_141"/>
  </g>
  <g id="svg_142">
   <path d="m236.5,191.5c-0.28,5.43 0.05,10.76 1,16c0.02,2.43 0.52,4.76 1.5,7c4.22,6.77 8.22,13.77 12,21c2.12,5.83 3.29,11.83 3.5,18c-0.99,-0.17 -1.66,0.16 -2,1c-0.33,0 -0.67,0 -1,0c-1.13,-7.17 -2.97,-14.17 -5.5,-21c-2.95,-6.87 -6.29,-13.53 -10,-20c-0.82,-7.51 -0.66,-14.84 0.5,-22z" fill="#53331d" id="svg_143"/>
  </g>
  <g id="svg_144">
   <path d="m393.5,216.5c2.22,2.15 3.55,4.82 4,8c0,1 0,2 0,3c-2.08,5.83 -5.41,10.83 -10,15c2.44,-5.88 4.61,-11.88 6.5,-18c0.6,-2.72 0.44,-5.39 -0.5,-8z" fill="#a07657" id="svg_145"/>
  </g>
  <g id="svg_146">
   <path d="m237.5,207.5c1.1,1.78 1.93,3.78 2.5,6c2.04,1.87 3.87,3.87 5.5,6c3.81,4.01 7.31,8.35 10.5,13c2.35,7.02 3.19,14.02 2.5,21c-1.33,0 -2.67,0 -4,0c-0.21,-6.17 -1.38,-12.17 -3.5,-18c-3.78,-7.23 -7.78,-14.23 -12,-21c-0.98,-2.24 -1.48,-4.57 -1.5,-7z" fill="#634029" id="svg_147"/>
  </g>
  <g id="svg_148">
   <path d="m246.5,160.5c0.6,0.24 0.93,0.74 1,1.5c-0.72,3.17 -1.39,6.34 -2,9.5c-1.95,1.13 -3.45,2.79 -4.5,5c-1.2,7.12 -2.03,14.29 -2.5,21.5c-0.28,5.4 1.05,10.23 4,14.5c2.45,3.06 5.45,5.39 9,7c2.78,0.56 5.62,0.89 8.5,1c7.1,-1.52 14.26,-2.02 21.5,-1.5c7.26,2.48 14.59,4.65 22,6.5c2.21,1.5 4.38,2.5 6.5,3c0.33,-0.33 0.67,-0.67 1,-1c3,1.37 6.16,2.03 9.5,2c1.79,-0.13 3.46,0.2 5,1c9.37,0.46 18.7,1.3 28,2.5c5.2,2.09 9.86,4.93 14,8.5c-0.62,0.11 -1.12,0.44 -1.5,1c-3.6,-2.6 -7.43,-4.77 -11.5,-6.5c-15.03,-0.12 -30.03,-0.79 -45,-2c-10.09,-3.58 -19.75,-7.91 -29,-13c-3,-0.67 -6,-0.67 -9,0c-8.87,3.51 -17.53,3.01 -26,-1.5c-1.63,-2.13 -3.46,-4.13 -5.5,-6c-0.57,-2.22 -1.4,-4.22 -2.5,-6c-0.95,-5.24 -1.28,-10.57 -1,-16c0.79,-4.96 1.63,-9.96 2.5,-15c1.44,-2.93 2.61,-5.93 3.5,-9c1.09,-2.52 2.43,-4.86 4,-7z" fill="#88604b" id="svg_149"/>
  </g>
  <g id="svg_150">
   <path d="m328.5,185.5c1.72,1.07 2.72,2.74 3,5c-0.81,1.57 -1.14,3.24 -1,5c1,0 2,0 3,0c-0.16,3.68 0,7.35 0.5,11c1.47,3.45 3.3,6.61 5.5,9.5c1.62,0.62 2.95,1.62 4,3c9.65,2.79 19.31,5.46 29,8c3.06,1.04 5.73,2.71 8,5c-1.55,3.6 -3.72,6.77 -6.5,9.5c-0.33,-0.67 -0.67,-1.33 -1,-2c-1.11,1.54 -2.61,2.2 -4.5,2c-0.33,0 -0.67,0 -1,0c-4.14,-3.57 -8.8,-6.41 -14,-8.5c-9.3,-1.2 -18.63,-2.04 -28,-2.5c2.96,-2.46 5.79,-5.12 8.5,-8c0.93,-6.77 -0.57,-12.94 -4.5,-18.5c-2.8,-0.97 -4.8,-0.14 -6,2.5c2.69,4.74 2.35,9.24 -1,13.5c-4.69,0.56 -9.36,0.4 -14,-0.5c-3.12,-1.64 -4.95,-4.31 -5.5,-8c-0.67,-1.33 -1.33,-1.33 -2,0c-1.06,5.06 0.11,9.56 3.5,13.5c-0.23,0.4 -0.56,0.56 -1,0.5c-7.41,-1.85 -14.74,-4.02 -22,-6.5c-7.24,-0.52 -14.4,-0.02 -21.5,1.5c-2.88,-0.11 -5.72,-0.44 -8.5,-1c-3.97,-6.07 -5.8,-12.74 -5.5,-20c0.9,1.2 2.07,2.03 3.5,2.5c10.23,0.89 20.23,2.39 30,4.5c13.19,3.05 23.86,-0.62 32,-11c0,1.33 0,2.67 0,4c2.2,-0.09 4.36,-0.42 6.5,-1c3.34,1.54 6.84,2.21 10.5,2c0,-5 0,-10 0,-15z" fill="#e7c2a6" id="svg_151"/>
  </g>
  <g id="svg_152">
   <path d="m309.5,206.5c9.84,-2.32 14,1.35 12.5,11c-4.2,1.4 -8.37,1.23 -12.5,-0.5c-1.44,-1.13 -2.11,-2.63 -2,-4.5c0.22,-2.19 0.88,-4.19 2,-6z" fill="#f5d4b8" id="svg_153"/>
  </g>
  <g id="svg_154">
   <path d="m279.5,206.5c0.11,0.62 0.44,1.12 1,1.5c4.67,0.33 9.33,0.67 14,1c-8.24,5.24 -17.24,6.91 -27,5c-2.59,-0.23 -5.09,-0.73 -7.5,-1.5c-0.92,-2.81 -0.09,-4.97 2.5,-6.5c5.66,-0.09 11.32,0.07 17,0.5z" fill="#f7d2ba" id="svg_155"/>
  </g>
  <g id="svg_156">
   <path d="m242.5,264.5c-1.21,1.19 -2.54,1.19 -4,0c-0.33,-0.67 -0.67,-1.33 -1,-2c-5.25,-14.16 -7.91,-28.82 -8,-44c0.93,-1.07 1.27,-2.4 1,-4c0.72,-0.42 1.22,-1.08 1.5,-2c3.66,10.66 7.33,21.32 11,32c0.05,6.66 -0.12,13.32 -0.5,20z" fill="#381b04" id="svg_157"/>
  </g>
  <g id="svg_158">
   <path d="m271.5,238.5c0.95,1.42 1.28,3.09 1,5c-0.54,0.06 -0.88,0.39 -1,1c1.41,5.6 2.58,11.27 3.5,17c1.5,2.83 3.67,5 6.5,6.5c8.9,2.15 17.9,3.15 27,3c3.75,-3.43 6.08,-7.59 7,-12.5c1.33,0 2.67,0 4,0c0.67,0.67 1.33,1.33 2,2c2.05,2.75 4.88,4.08 8.5,4c11.42,-0.94 19.26,-6.61 23.5,-17c-0.06,0.44 0.1,0.77 0.5,1c1.23,-2.73 2.06,-2.56 2.5,0.5c-0.46,2.39 -1.13,4.72 -2,7c1.39,1.3 1.89,2.8 1.5,4.5c-6.16,7.15 -13.32,12.98 -21.5,17.5c-5.29,0.79 -10.46,0.29 -15.5,-1.5c-8.25,2.88 -16.75,3.71 -25.5,2.5c-6.45,-3.23 -13.12,-5.89 -20,-8c-2.95,-2.78 -5.62,-5.61 -8,-8.5c0,-0.33 0,-0.67 0,-1c0.64,-0.6 0.97,-1.43 1,-2.5c-0.85,-5.48 -1.52,-10.98 -2,-16.5c1.18,0.22 2.18,-0.11 3,-1c0.66,-7.21 1.83,-7.54 3.5,-1c0.46,-0.59 0.63,-1.26 0.5,-2z" fill="#7c553f" id="svg_159"/>
  </g>
  <g id="svg_160">
   <path d="m245.5,219.5c8.47,4.51 17.13,5.01 26,1.5c3,-0.67 6,-0.67 9,0c9.25,5.09 18.91,9.42 29,13c14.97,1.21 29.97,1.88 45,2c4.07,1.73 7.9,3.9 11.5,6.5c0.38,-0.56 0.88,-0.89 1.5,-1c0.33,0 0.67,0 1,0c6.1,3.52 12.43,3.85 19,1c4.59,-4.17 7.92,-9.17 10,-15c-0.19,4.38 -1.52,8.38 -4,12c-2.4,2.41 -5.07,4.41 -8,6c-6.16,1.65 -12.5,2.48 -19,2.5c-2.26,2.77 -3.76,5.94 -4.5,9.5c-3.36,4.36 -6.7,8.69 -10,13c-1.07,0.69 -2.23,1.19 -3.5,1.5c-4.11,5.76 -9.44,10.1 -16,13c-3.56,-0.67 -7.22,-1.5 -11,-2.5c-4.66,1.66 -9.32,3.33 -14,5c-4.82,-1.31 -9.65,-1.31 -14.5,0c-1.89,-0.7 -3.73,-1.53 -5.5,-2.5c-1.63,-4.14 -4.63,-5.98 -9,-5.5c0,1.67 0,3.33 0,5c-0.81,1.79 -1.31,3.79 -1.5,6c-0.67,0.67 -1.33,1.33 -2,2c-3.99,-5.82 -6.83,-12.16 -8.5,-19c-0.78,-1.79 -2.12,-2.79 -4,-3c1.23,-1.8 1.9,-3.8 2,-6c0.84,-0.34 1.17,-1.01 1,-2c2.38,2.89 5.05,5.72 8,8.5c6.88,2.11 13.55,4.77 20,8c8.75,1.21 17.25,0.38 25.5,-2.5c5.04,1.79 10.21,2.29 15.5,1.5c8.18,-4.52 15.34,-10.35 21.5,-17.5c0.39,-1.7 -0.11,-3.2 -1.5,-4.5c0.87,-2.28 1.54,-4.61 2,-7c-0.44,-3.06 -1.27,-3.23 -2.5,-0.5c-0.4,-0.23 -0.56,-0.56 -0.5,-1c0.2,-2.45 -0.13,-4.78 -1,-7c0.93,-1.07 1.27,-2.4 1,-4c-11.84,0.37 -23.5,1.03 -35,2c-3.35,0.16 -6.68,0 -10,-0.5c-4.16,-2.75 -8.49,-4.91 -13,-6.5c1.24,-0.31 1.24,-0.81 0,-1.5c-6.6,-3.42 -13.44,-6.26 -20.5,-8.5c-1.71,-0.06 -3.04,0.61 -4,2c-0.81,3.53 -0.64,6.86 0.5,10c0,1.67 0,3.33 0,5c0.13,0.74 -0.04,1.41 -0.5,2c-1.67,-6.54 -2.84,-6.21 -3.5,1c-0.82,0.89 -1.82,1.22 -3,1c0.48,5.52 1.15,11.02 2,16.5c-0.03,1.07 -0.36,1.9 -1,2.5c0.27,-1.88 -0.4,-3.21 -2,-4c-0.33,-1 -1,-1.67 -2,-2c-1.21,-0.43 -2.21,-1.1 -3,-2c0.69,-6.98 -0.15,-13.98 -2.5,-21c-3.19,-4.65 -6.69,-8.99 -10.5,-13z" fill="#6f4932" id="svg_161"/>
  </g>
  <g id="svg_162">
   <path d="m281.5,228.5c9.58,2.58 18.58,6.41 27,11.5c13,0.67 26,0.67 39,0c0.92,-0.28 1.58,-0.78 2,-1.5c1.21,0.43 2.21,1.1 3,2c-0.67,0 -1.33,0 -2,0c-1.62,0.54 -3.28,0.87 -5,1c-17.49,3.76 -34.49,2.26 -51,-4.5c-4.71,-2.35 -9.04,-5.18 -13,-8.5z" fill="#a8755d" id="svg_163"/>
  </g>
  <g id="svg_164">
   <path d="m274.5,226.5c1.57,0.44 2.74,1.44 3.5,3c2.32,5.62 4.65,11.28 7,17c3.06,2.58 6.23,4.91 9.5,7c-1.91,2.83 -4.57,3.67 -8,2.5c-2.67,-1.67 -5.33,-3.33 -8,-5c-1.86,-2.69 -3.86,-5.19 -6,-7.5c0.28,-1.91 -0.05,-3.58 -1,-5c0,-1.67 0,-3.33 0,-5c-0.32,-2.98 0.68,-5.31 3,-7z" fill="#efcdb1" id="svg_165"/>
  </g>
  <g id="svg_166">
   <path d="m281.5,226.5c4.51,1.97 9.18,3.63 14,5c4.51,1.59 8.84,3.75 13,6.5c3.32,0.5 6.65,0.66 10,0.5c10.33,0 20.67,0 31,0c-0.42,0.72 -1.08,1.22 -2,1.5c-13,0.67 -26,0.67 -39,0c-8.42,-5.09 -17.42,-8.92 -27,-11.5c-2.43,-1.05 -2.43,-1.71 0,-2z" fill="#c6a086" id="svg_167"/>
  </g>
  <g id="svg_168">
   <path d="m277.5,225.5c1.6,-0.27 2.93,0.07 4,1c-2.43,0.29 -2.43,0.95 0,2c3.96,3.32 8.29,6.15 13,8.5c16.51,6.76 33.51,8.26 51,4.5c-23.86,6.96 -45.86,2.96 -66,-12c-1.1,-1.1 -1.77,-2.44 -2,-4z" fill="#8a5035" id="svg_169"/>
  </g>
  <g id="svg_170">
   <path d="m352.5,240.5c-0.79,-0.9 -1.79,-1.57 -3,-2c-10.33,0 -20.67,0 -31,0c11.5,-0.97 23.16,-1.63 35,-2c0.27,1.6 -0.07,2.93 -1,4z" fill="#3b1e08" id="svg_171"/>
  </g>
  <g id="svg_172">
   <path d="m295.5,231.5c-4.82,-1.37 -9.49,-3.03 -14,-5c-1.07,-0.93 -2.4,-1.27 -4,-1c-1.29,-0.24 -2.29,0.1 -3,1c-2.32,1.69 -3.32,4.02 -3,7c-1.14,-3.14 -1.31,-6.47 -0.5,-10c0.96,-1.39 2.29,-2.06 4,-2c7.06,2.24 13.9,5.08 20.5,8.5c1.24,0.69 1.24,1.19 0,1.5z" fill="#52321c" id="svg_173"/>
  </g>
  <g id="svg_174">
   <path d="m396.5,245.5c-0.13,1.72 -0.46,3.38 -1,5c-0.73,1.21 -1.07,2.54 -1,4c-4.75,10.51 -10.75,20.17 -18,29c-2.13,1.63 -4.13,3.46 -6,5.5c-1.69,0.48 -3.03,-0.02 -4,-1.5c3.02,-6.42 6.19,-12.75 9.5,-19c7.86,-7.01 14.7,-14.68 20.5,-23z" fill="#2d0f00" id="svg_175" opacity="0.99"/>
  </g>
  <g id="svg_176">
   <path d="m397.5,224.5c0.33,0 0.67,0 1,0c1.32,2.95 2.32,5.95 3,9c-1.31,4.28 -2.97,8.28 -5,12c-5.8,8.32 -12.64,15.99 -20.5,23c-3.31,6.25 -6.48,12.58 -9.5,19c-3.07,5.91 -7.4,10.74 -13,14.5c-0.83,0.69 -1.5,0.52 -2,-0.5c-0.55,-1.83 -1.38,-3.5 -2.5,-5c-0.72,0.54 -1.22,1.21 -1.5,2c-2.67,2.33 -5.33,4.67 -8,7c-0.44,0.06 -0.77,-0.1 -1,-0.5c1.84,-3.25 4.17,-6.08 7,-8.5c0.82,-0.89 1.82,-1.22 3,-1c1.07,-4.26 3.24,-7.92 6.5,-11c1.6,-3.77 3.43,-7.44 5.5,-11c9.3,-8.56 18.47,-17.23 27.5,-26c2.08,-2.56 3.91,-5.23 5.5,-8c2.48,-3.62 3.81,-7.62 4,-12c0,-1 0,-2 0,-3z" fill="#361903" id="svg_177"/>
  </g>
  <g id="svg_178">
   <path d="m279.5,229.5c20.14,14.96 42.14,18.96 66,12c1.72,-0.13 3.38,-0.46 5,-1c-0.33,1 -1,1.67 -2,2c-1.42,0.21 -2.75,0.71 -4,1.5c0.56,1.57 -0.11,2.9 -2,4c-18.4,9.03 -36.06,7.7 -53,-4c-4.72,-3.97 -8.06,-8.8 -10,-14.5z" fill="#c99c85" id="svg_179"/>
  </g>
  <g id="svg_180">
   <path d="m272.5,243.5c2.14,2.31 4.14,4.81 6,7.5c2.67,1.67 5.33,3.33 8,5c3.43,1.17 6.09,0.33 8,-2.5c6.68,0.63 13.35,1.47 20,2.5c1.99,0.37 3.66,1.21 5,2.5c-1.33,0 -2.67,0 -4,0c-0.92,4.91 -3.25,9.07 -7,12.5c-9.1,0.15 -18.1,-0.85 -27,-3c-2.83,-1.5 -5,-3.67 -6.5,-6.5c-0.92,-5.73 -2.09,-11.4 -3.5,-17c0.12,-0.61 0.46,-0.94 1,-1z" fill="#865e49" id="svg_181"/>
  </g>
  <g id="svg_182">
   <path d="m274.5,226.5c0.71,-0.9 1.71,-1.24 3,-1c0.23,1.56 0.9,2.9 2,4c1.94,5.7 5.28,10.53 10,14.5c16.94,11.7 34.6,13.03 53,4c1.89,-1.1 2.56,-2.43 2,-4c1.25,-0.79 2.58,-1.29 4,-1.5c-2.78,3.96 -5.78,7.79 -9,11.5c-5.91,2.46 -11.91,4.63 -18,6.5c-0.67,-0.67 -1.33,-1.33 -2,-2c-1.34,-1.29 -3.01,-2.13 -5,-2.5c-6.65,-1.03 -13.32,-1.87 -20,-2.5c-3.27,-2.09 -6.44,-4.42 -9.5,-7c-2.35,-5.72 -4.68,-11.38 -7,-17c-0.76,-1.56 -1.93,-2.56 -3.5,-3z" fill="#d6b295" id="svg_183"/>
  </g>
  <g id="svg_184">
   <path d="m350.5,240.5c0.67,0 1.33,0 2,0c0.87,2.22 1.2,4.55 1,7c-4.24,10.39 -12.08,16.06 -23.5,17c-3.62,0.08 -6.45,-1.25 -8.5,-4c6.09,-1.87 12.09,-4.04 18,-6.5c3.22,-3.71 6.22,-7.54 9,-11.5c1,-0.33 1.67,-1 2,-2z" fill="#e6c3a6" id="svg_185"/>
  </g>
  <g id="svg_186">
   <path d="m222.5,264.5c3.61,6.3 5.44,12.96 5.5,20c-0.23,1.24 -0.73,2.24 -1.5,3c0.04,-6.06 -1.46,-11.73 -4.5,-17c-0.79,-2.21 -0.62,-4.21 0.5,-6z" fill="#9b724f" id="svg_187" opacity="0.75"/>
  </g>
  <g id="svg_188">
   <path d="m263.5,257.5c1.6,0.79 2.27,2.12 2,4c0,0.33 0,0.67 0,1c0.17,0.99 -0.16,1.66 -1,2c-1.94,2.81 -3.77,5.81 -5.5,9c-2.13,0.75 -3.8,2.09 -5,4c-3.6,7.26 -7.6,14.26 -12,21c-5.08,4.07 -7.58,9.4 -7.5,16c-0.97,1.25 -1.64,0.92 -2,-1c1.03,-5.77 3.03,-11.1 6,-16c2.65,-3.43 5.49,-6.76 8.5,-10c4.18,-8.19 9.18,-15.85 15,-23c1.2,-2.18 1.7,-4.51 1.5,-7z" fill="#c09a7a" id="svg_189"/>
  </g>
  <g id="svg_190">
   <path d="m261.5,255.5c1,0.33 1.67,1 2,2c0.2,2.49 -0.3,4.82 -1.5,7c-5.82,7.15 -10.82,14.81 -15,23c-3.01,3.24 -5.85,6.57 -8.5,10c4.82,-9.8 9.82,-19.47 15,-29c6.52,-2.06 9.19,-6.39 8,-13z" fill="#d9b596" id="svg_191"/>
  </g>
  <g id="svg_192">
   <path d="m393.5,239.5c-1.59,2.77 -3.42,5.44 -5.5,8c-9.03,8.77 -18.2,17.44 -27.5,26c-2.07,3.56 -3.9,7.23 -5.5,11c-3.26,3.08 -5.43,6.74 -6.5,11c-1.18,-0.22 -2.18,0.11 -3,1c-2.83,2.42 -5.16,5.25 -7,8.5c0.23,0.4 0.56,0.56 1,0.5c-3.57,4.4 -5.9,3.73 -7,-2c-2.81,4.64 -6.31,8.64 -10.5,12c-1.28,-4.23 -3.78,-7.56 -7.5,-10c-5.14,5.81 -11.14,10.48 -18,14c-4.84,-5.67 -8.67,-12 -11.5,-19c-1.91,-0.83 -3.74,-0.5 -5.5,1c-0.6,-0.24 -0.93,-0.74 -1,-1.5c1.32,-3.39 2.32,-6.89 3,-10.5c1.81,3.14 3.15,6.48 4,10c2.41,0.42 4.24,1.75 5.5,4c1.71,4.19 3.54,8.36 5.5,12.5c1.85,-0.6 3.85,-1.1 6,-1.5c0,-1 0,-2 0,-3c1.37,0.16 2.71,-0.01 4,-0.5c5.53,-4.97 10.19,-10.47 14,-16.5c0.99,3.94 1.32,7.94 1,12c-0.3,2.1 0.03,4.1 1,6c3.26,-5.92 6.42,-11.92 9.5,-18c3.05,-1.93 5.55,-4.43 7.5,-7.5c2.92,-1.71 5.75,-3.54 8.5,-5.5c2.28,-3.95 4.95,-7.61 8,-11c0.61,-3.6 2.11,-6.77 4.5,-9.5c4.3,-3.3 8.3,-6.97 12,-11c3.25,-1.04 6.59,-1.7 10,-2c1.44,-0.38 2.44,-1.21 3,-2.5c2.93,-1.59 5.6,-3.59 8,-6z" fill="#4f301a" id="svg_193"/>
  </g>
  <g id="svg_194">
   <path d="m256.5,281.5c1.91,2.8 3.57,5.8 5,9c-0.67,0 -1.33,0 -2,0c-3.34,-0.44 -6.34,0.23 -9,2c-0.97,-1.22 -0.8,-2.55 0.5,-4c1.85,-2.4 3.69,-4.74 5.5,-7z" fill="#272a31" id="svg_195"/>
  </g>
  <g id="svg_196">
   <path d="m262.5,270.5c1.88,0.21 3.22,1.21 4,3c1.67,6.84 4.51,13.18 8.5,19c0.67,-0.67 1.33,-1.33 2,-2c0.19,-2.21 0.69,-4.21 1.5,-6c1.87,-1.26 3.53,-0.92 5,1c0.71,9.87 5.88,15.87 15.5,18c8.04,-0.93 14.21,-4.77 18.5,-11.5c1.84,-1.13 3.84,-1.63 6,-1.5c-0.03,5.55 -0.69,10.88 -2,16c0.32,-4.06 -0.01,-8.06 -1,-12c-3.81,6.03 -8.47,11.53 -14,16.5c-1.29,0.49 -2.63,0.66 -4,0.5c0,1 0,2 0,3c-2.15,0.4 -4.15,0.9 -6,1.5c-1.96,-4.14 -3.79,-8.31 -5.5,-12.5c-1.26,-2.25 -3.09,-3.58 -5.5,-4c-0.85,-3.52 -2.19,-6.86 -4,-10c-0.68,3.61 -1.68,7.11 -3,10.5c0.07,0.76 0.4,1.26 1,1.5c-1.33,2 -3,3.67 -5,5c-2.26,-4.2 -4.26,-8.53 -6,-13c-0.8,0.46 -1.13,1.12 -1,2c-2.03,-1.7 -4.03,-3.36 -6,-5c-1.43,-3.2 -3.09,-6.2 -5,-9c1.73,-3.8 3.73,-7.47 6,-11z" fill="#583821" id="svg_197"/>
  </g>
  <g id="svg_198">
   <path d="m221.5,304.5c1.64,-2.98 3.31,-5.98 5,-9c1.29,-0.79 2.46,-1.79 3.5,-3c2.69,-6.89 6.53,-13.06 11.5,-18.5c1.67,-0.67 3.33,-0.67 5,0c0.56,0.73 0.89,1.56 1,2.5c-4.96,9.92 -10.46,19.59 -16.5,29c-0.95,2.93 -1.45,5.93 -1.5,9c-8.28,1.06 -10.94,-2.27 -8,-10z" fill="#fbdbc0" id="svg_199"/>
  </g>
  <g id="svg_200">
   <path d="m259.5,290.5c0.67,0 1.33,0 2,0c1.97,1.64 3.97,3.3 6,5c0.8,1.54 1.13,3.21 1,5c-6.46,8.07 -11.79,16.9 -16,26.5c0.33,0.5 0.67,1 1,1.5c4.15,-4.29 7.32,-9.29 9.5,-15c1.15,-1.14 2.31,-2.14 3.5,-3c1,0 2,0 3,0c-5.54,4.71 -9.37,10.71 -11.5,18c-2.28,0.62 -4.44,1.28 -6.5,2c-0.33,0 -0.67,0 -1,0c-0.16,-2.03 0,-4.03 0.5,-6c4.22,-9.45 8.72,-18.78 13.5,-28c-0.97,-2.63 -2.63,-4.63 -5,-6z" fill="#cea889" id="svg_201"/>
  </g>
  <g id="svg_202">
   <path d="m376.5,283.5c0.66,1.54 1.33,3.21 2,5c2.93,0.95 5.26,2.62 7,5c-2.74,-0.1 -5.4,0.24 -8,1c-0.66,-1.22 -1.33,-2.55 -2,-4c-2.73,2.68 -5.4,5.35 -8,8c-3.7,6.21 -8.37,11.71 -14,16.5c-8.88,6.94 -18.22,13.1 -28,18.5c-1.73,1.06 -3.4,1.06 -5,0c4.15,-4.01 8.65,-7.67 13.5,-11c2.28,-3.95 4.95,-7.61 8,-11c2.4,-4.13 4.24,-8.47 5.5,-13c0.28,-0.79 0.78,-1.46 1.5,-2c1.12,1.5 1.95,3.17 2.5,5c0.5,1.02 1.17,1.19 2,0.5c5.6,-3.76 9.93,-8.59 13,-14.5c0.97,1.48 2.31,1.98 4,1.5c1.87,-2.04 3.87,-3.87 6,-5.5z" fill="#1d2631" id="svg_203"/>
  </g>
  <g id="svg_204">
   <path d="m385.5,293.5c1.76,0.76 2.76,2.1 3,4c1.4,3.98 1.74,7.98 1,12c-3.49,2.98 -6.82,6.15 -10,9.5c-6.79,2.48 -12.79,6.15 -18,11c-2.56,0.38 -4.89,1.22 -7,2.5c-2.1,0.73 -4.1,0.73 -6,0c0.76,-1.22 1.76,-2.22 3,-3c-0.53,-0.69 -1.19,-1.19 -2,-1.5c12.75,-8.36 22.09,-19.52 28,-33.5c2.6,-0.76 5.26,-1.1 8,-1z" fill="#3d4d61" id="svg_205"/>
  </g>
  <g id="svg_206">
   <path d="m274.5,306.5c1.33,2.33 2.67,4.67 4,7c-0.33,0 -0.67,0 -1,0c-2.22,-2.11 -4.88,-3.11 -8,-3c-1,0 -2,0 -3,0c1.52,-3.13 2.19,-6.46 2,-10c0.13,-1.79 -0.2,-3.46 -1,-5c-0.13,-0.88 0.2,-1.54 1,-2c1.74,4.47 3.74,8.8 6,13z" fill="#20262f" id="svg_207"/>
  </g>
  <g id="svg_208">
   <path d="m347.5,298.5c-1.26,4.53 -3.1,8.87 -5.5,13c-3.05,3.39 -5.72,7.05 -8,11c-4.85,3.33 -9.35,6.99 -13.5,11c-0.33,0 -0.67,0 -1,0c-1.16,-1.88 -2.83,-2.38 -5,-1.5c-2.2,2.59 -4.87,4.43 -8,5.5c-0.67,-0.33 -1.33,-0.67 -2,-1c-8.5,-4.54 -16,-10.54 -22.5,-18c-0.28,2.91 -1.11,5.58 -2.5,8c-0.86,1.92 -1.53,3.92 -2,6c-1.17,1.01 -1.84,2.35 -2,4c-2.39,2.24 -4.23,4.9 -5.5,8c1.66,-7.99 4.99,-15.32 10,-22c0.79,-3.24 0.29,-6.24 -1.5,-9c-1.33,-2.33 -2.67,-4.67 -4,-7c2,-1.33 3.67,-3 5,-5c1.76,-1.5 3.59,-1.83 5.5,-1c2.83,7 6.66,13.33 11.5,19c6.86,-3.52 12.86,-8.19 18,-14c3.72,2.44 6.22,5.77 7.5,10c4.19,-3.36 7.69,-7.36 10.5,-12c1.1,5.73 3.43,6.4 7,2c2.67,-2.33 5.33,-4.67 8,-7z" fill="#8e623d" id="svg_209"/>
  </g>
  <g id="svg_210">
   <path d="m385.5,245.5c-0.56,1.29 -1.56,2.12 -3,2.5c-3.41,0.3 -6.75,0.96 -10,2c-3.7,4.03 -7.7,7.7 -12,11c-2.39,2.73 -3.89,5.9 -4.5,9.5c-3.05,3.39 -5.72,7.05 -8,11c-2.75,1.96 -5.58,3.79 -8.5,5.5c-1.95,3.07 -4.45,5.57 -7.5,7.5c-3.08,6.08 -6.24,12.08 -9.5,18c-0.97,-1.9 -1.3,-3.9 -1,-6c1.31,-5.12 1.97,-10.45 2,-16c-2.16,-0.13 -4.16,0.37 -6,1.5c-4.29,6.73 -10.46,10.57 -18.5,11.5c-9.62,-2.13 -14.79,-8.13 -15.5,-18c-1.47,-1.92 -3.13,-2.26 -5,-1c0,-1.67 0,-3.33 0,-5c4.37,-0.48 7.37,1.36 9,5.5c1.77,0.97 3.61,1.8 5.5,2.5c4.85,-1.31 9.68,-1.31 14.5,0c4.68,-1.67 9.34,-3.34 14,-5c3.78,1 7.44,1.83 11,2.5c6.56,-2.9 11.89,-7.24 16,-13c1.27,-0.31 2.43,-0.81 3.5,-1.5c3.3,-4.31 6.64,-8.64 10,-13c0.74,-3.56 2.24,-6.73 4.5,-9.5c6.5,-0.02 12.84,-0.85 19,-2.5z" fill="#623f28" id="svg_211"/>
  </g>
  <g id="svg_212">
   <path d="m251.5,254.5c0.33,0 0.67,0 1,0c-3.25,4.59 -6.91,8.92 -11,13c-5.55,9.1 -10.55,18.43 -15,28c-1.69,3.02 -3.36,6.02 -5,9c-2.64,2.02 -3.48,4.68 -2.5,8c1.63,2.63 3.63,4.96 6,7c0.54,2.13 1.38,4.13 2.5,6c3.85,3.02 7.19,6.52 10,10.5c1.97,0.5 3.97,0.66 6,0.5c-0.16,2.36 0,4.69 0.5,7c3.74,1.73 7.24,3.9 10.5,6.5c2.33,0.33 4.67,0.67 7,1c0.67,2.67 1.33,5.33 2,8c4.35,2.59 9.02,3.59 14,3c1.8,-1.81 3.47,-3.64 5,-5.5c-0.63,3.14 -2.3,5.64 -5,7.5c-6.15,1.45 -11.65,0.28 -16.5,-3.5c-0.24,-2.26 -0.74,-4.43 -1.5,-6.5c-5.46,-2.4 -11.13,-4.06 -17,-5c-2,-2.67 -4,-5.33 -6,-8c-1.75,-0.47 -3.41,-1.14 -5,-2c-6.32,-5.81 -11.82,-12.31 -16.5,-19.5c-0.33,-2 -0.67,-4 -1,-6c-0.38,0.56 -0.88,0.89 -1.5,1c0,-0.67 0,-1.33 0,-2c4.93,-8.2 9.6,-16.53 14,-25c0.77,-0.76 1.27,-1.76 1.5,-3c-0.06,-7.04 -1.89,-13.7 -5.5,-20c1.02,-2.94 3.18,-4.27 6.5,-4c2.92,0.36 5.75,1.03 8.5,2c0.33,0.67 0.67,1.33 1,2c1.46,1.19 2.79,1.19 4,0c3,-3.33 6,-6.67 9,-10z" fill="#d6b192" id="svg_213"/>
  </g>
  <g id="svg_214">
   <path d="m238.5,264.5c0.72,1.64 0.88,3.3 0.5,5c-2.58,3.5 -4.92,7.16 -7,11c-0.13,-4.42 -1.8,-8.08 -5,-11c-1.12,-2.26 -1.95,-4.6 -2.5,-7c4.83,-0.28 9.49,0.39 14,2z" fill="#f7d7bb" id="svg_215"/>
  </g>
  <g id="svg_216">
   <path d="m264.5,264.5c-0.1,2.2 -0.77,4.2 -2,6c-2.27,3.53 -4.27,7.2 -6,11c-1.81,2.26 -3.65,4.6 -5.5,7c-1.3,1.45 -1.47,2.78 -0.5,4c-3.24,6.14 -6.74,12.14 -10.5,18c-1.45,1.96 -3.28,3.3 -5.5,4c-0.08,-6.6 2.42,-11.93 7.5,-16c4.4,-6.74 8.4,-13.74 12,-21c1.2,-1.91 2.87,-3.25 5,-4c1.73,-3.19 3.56,-6.19 5.5,-9z" fill="#9b714e" id="svg_217"/>
  </g>
  <g id="svg_218">
   <path d="m254.5,253.5c1.33,0 2.67,0 4,0c0.79,0.9 1.79,1.57 3,2c1.19,6.61 -1.48,10.94 -8,13c-5.18,9.53 -10.18,19.2 -15,29c-2.97,4.9 -4.97,10.23 -6,16c0.36,1.92 1.03,2.25 2,1c2.22,-0.7 4.05,-2.04 5.5,-4c3.76,-5.86 7.26,-11.86 10.5,-18c2.66,-1.77 5.66,-2.44 9,-2c2.37,1.37 4.03,3.37 5,6c-4.78,9.22 -9.28,18.55 -13.5,28c-0.5,1.97 -0.66,3.97 -0.5,6c-0.98,2.62 -2.48,4.95 -4.5,7c-0.49,1.29 -0.66,2.63 -0.5,4c4.28,-1.02 6.61,0.65 7,5c4.37,2.76 8.54,2.43 12.5,-1c0.18,-3.05 0.68,-6.05 1.5,-9c1.75,-4.51 4.25,-8.51 7.5,-12c0.82,-3.46 0.48,-6.8 -1,-10c-3.21,-1.62 -5.87,-0.96 -8,2c-1.62,3.57 -2.95,7.24 -4,11c-2.55,2.69 -5.71,3.69 -9.5,3c2.06,-0.72 4.22,-1.38 6.5,-2c2.13,-7.29 5.96,-13.29 11.5,-18c3.12,-0.11 5.78,0.89 8,3c0.89,2.28 1.06,4.62 0.5,7c-2.56,6.23 -5.56,12.23 -9,18c-0.17,1.33 -0.33,2.67 -0.5,4c0.58,2.36 1.25,4.36 2,6c2.61,-3.69 4.95,-7.52 7,-11.5c8.95,-1.05 12.11,2.79 9.5,11.5c-1.07,2.94 -2.57,5.6 -4.5,8c-1.53,1.86 -3.2,3.69 -5,5.5c-4.98,0.59 -9.65,-0.41 -14,-3c-0.67,-2.67 -1.33,-5.33 -2,-8c-2.33,-0.33 -4.67,-0.67 -7,-1c-3.26,-2.6 -6.76,-4.77 -10.5,-6.5c-0.5,-2.31 -0.66,-4.64 -0.5,-7c-2.03,0.16 -4.03,0 -6,-0.5c-2.81,-3.98 -6.15,-7.48 -10,-10.5c-1.12,-1.87 -1.96,-3.87 -2.5,-6c-2.37,-2.04 -4.37,-4.37 -6,-7c-0.98,-3.32 -0.14,-5.98 2.5,-8c-2.94,7.73 -0.28,11.06 8,10c0.05,-3.07 0.55,-6.07 1.5,-9c6.04,-9.41 11.54,-19.08 16.5,-29c-0.11,-0.94 -0.44,-1.77 -1,-2.5c-1.67,-0.67 -3.33,-0.67 -5,0c-4.97,5.44 -8.81,11.61 -11.5,18.5c-1.04,1.21 -2.21,2.21 -3.5,3c4.45,-9.57 9.45,-18.9 15,-28c4.09,-4.08 7.75,-8.41 11,-13c0.34,-0.84 1.01,-1.17 2,-1z" fill="#ebc8ab" id="svg_219"/>
  </g>
  <g id="svg_220">
   <path d="m254.5,297.5c1.85,-0.28 3.18,0.39 4,2c-1.28,2.87 -2.11,5.87 -2.5,9c-2.77,2.1 -4.77,4.77 -6,8c-0.56,4.58 -1.9,8.92 -4,13c-2.24,1.78 -4.74,2.28 -7.5,1.5c-2.13,-4.22 -5.46,-6.72 -10,-7.5c-0.18,-2.48 0.82,-4.31 3,-5.5c1.94,0.31 3.94,0.31 6,0c7.7,-5.19 13.37,-12.03 17,-20.5z" fill="#fadabf" id="svg_221"/>
  </g>
  <g id="svg_222">
   <path d="m268.5,300.5c0.19,3.54 -0.48,6.87 -2,10c-1.19,0.86 -2.35,1.86 -3.5,3c-2.18,5.71 -5.35,10.71 -9.5,15c-0.33,-0.5 -0.67,-1 -1,-1.5c4.21,-9.6 9.54,-18.43 16,-26.5z" fill="#986e4c" id="svg_223"/>
  </g>
  <g id="svg_224">
   <path d="m208.5,322.5c0,0.67 0,1.33 0,2c-0.95,1.42 -1.28,3.08 -1,5c-3.76,6.39 -7.26,13.06 -10.5,20c-4.8,12.59 -9.3,25.26 -13.5,38c-5.63,10.64 -11.3,21.31 -17,32c-1.33,0 -2.67,0 -4,0c9.4,-24.68 18.9,-49.35 28.5,-74c4.57,-8.52 9.91,-16.52 16,-24c0.38,0.56 0.88,0.89 1.5,1z" fill="#516277" id="svg_225"/>
  </g>
  <g id="svg_226">
   <path d="m366.5,308.5c-8.79,8.55 -18.12,16.38 -28,23.5c-4.22,2.52 -8.72,4.36 -13.5,5.5c-1.17,-0.33 -2.33,-0.67 -3.5,-1c1.68,-0.65 3.02,-1.65 4,-3c9.78,-5.4 19.12,-11.56 28,-18.5c5.63,-4.79 10.3,-10.29 14,-16.5c2.28,-1.11 4.45,-2.44 6.5,-4c0.17,0.33 0.33,0.67 0.5,1c-2.72,4.37 -5.39,8.7 -8,13z" fill="#56677b" id="svg_227"/>
  </g>
  <g id="svg_228">
   <path d="m377.5,294.5c-5.91,13.98 -15.25,25.14 -28,33.5c0.81,0.31 1.47,0.81 2,1.5c-1.24,0.78 -2.24,1.78 -3,3c1.9,0.73 3.9,0.73 6,0c-5.56,3.48 -11.56,6.31 -18,8.5c-2.32,0.84 -4.66,1.17 -7,1c5.7,-4.18 11.36,-8.34 17,-12.5c1.84,-4.01 4.84,-6.84 9,-8.5c4.27,-3.76 7.94,-7.93 11,-12.5c2.61,-4.3 5.28,-8.63 8,-13c-0.17,-0.33 -0.33,-0.67 -0.5,-1c-2.05,1.56 -4.22,2.89 -6.5,4c2.6,-2.65 5.27,-5.32 8,-8c0.67,1.45 1.34,2.78 2,4z" fill="#314051" id="svg_229"/>
  </g>
  <g id="svg_230">
   <path d="m411.5,344.5c0.13,4.52 -1.2,8.52 -4,12c-2.77,2.7 -5.44,5.54 -8,8.5c-10.34,4.01 -19.34,10.01 -27,18c-3.59,2.36 -7.42,4.19 -11.5,5.5c-1,1.67 -2,3.33 -3,5c-2.81,8.6 -5.31,17.27 -7.5,26c-8.33,0 -16.67,0 -25,0c0,-17 0,-34 0,-51c1.38,3.4 2.05,7.07 2,11c-1.43,10.69 -1.26,21.36 0.5,32c7.95,-6.57 13.95,-14.57 18,-24c1.53,-7.86 3.7,-15.53 6.5,-23c6.4,-2.23 12.9,-4.23 19.5,-6c8.93,1.38 17.76,0.88 26.5,-1.5c1.83,-1.17 3.67,-2.33 5.5,-3.5c0.21,-2.73 1.04,-5.23 2.5,-7.5c-0.62,-2.47 -1.29,-4.97 -2,-7.5c-2.79,-2.16 -5.96,-3.49 -9.5,-4c-13.54,6.19 -26.71,13.02 -39.5,20.5c-9.59,4.04 -19.59,5.54 -30,4.5c-1.21,-1.17 -1.21,-2.5 0,-4c10.92,-2.6 21.09,-6.94 30.5,-13c1.69,-1.74 2.86,-3.74 3.5,-6c6.22,-0.61 12.22,-2.11 18,-4.5c4.22,-4.05 8.88,-7.55 14,-10.5c6.08,0.93 11.75,2.93 17,6c0.64,1.15 1.48,2.15 2.5,3c0.5,4.65 0.67,9.32 0.5,14z" fill="#57677c" id="svg_231"/>
  </g>
  <g id="svg_232">
   <path d="m293.5,333.5c0.16,1.7 -0.01,3.37 -0.5,5c-5.11,-2.14 -10.27,-4.14 -15.5,-6c0.47,-2.08 1.14,-4.08 2,-6c1.56,-0.02 3.06,-0.35 4.5,-1c1.52,1.2 2.69,2.7 3.5,4.5c2.19,0.93 4.19,2.09 6,3.5z" fill="#566579" id="svg_233"/>
  </g>
  <g id="svg_234">
   <path d="m304.5,336.5c-4.13,1.3 -7.8,0.3 -11,-3c-1.81,-1.41 -3.81,-2.57 -6,-3.5c-0.81,-1.8 -1.98,-3.3 -3.5,-4.5c-1.44,0.65 -2.94,0.98 -4.5,1c1.39,-2.42 2.22,-5.09 2.5,-8c6.5,7.46 14,13.46 22.5,18z" fill="#282d37" id="svg_235"/>
  </g>
  <g id="svg_236">
   <path d="m411.5,344.5c0.17,-4.68 0,-9.35 -0.5,-14c-1.02,-0.85 -1.86,-1.85 -2.5,-3c-5.25,-3.07 -10.92,-5.07 -17,-6c-5.12,2.95 -9.78,6.45 -14,10.5c-5.78,2.39 -11.78,3.89 -18,4.5c-0.64,2.26 -1.81,4.26 -3.5,6c-9.41,6.06 -19.58,10.4 -30.5,13c-1.21,1.5 -1.21,2.83 0,4c0,3 0,6 0,9c0,17 0,34 0,51c-0.67,0 -1.33,0 -2,0c-0.25,-24.33 -0.58,-48.67 -1,-73c11.59,-2.86 22.92,-6.53 34,-11c10.21,0.1 18.54,-3.73 25,-11.5c5.31,-2.3 10.14,-5.13 14.5,-8.5c5.63,1.43 11.13,3.27 16.5,5.5c2.76,3 3.6,6.5 2.5,10.5c-0.73,4.58 -1.89,8.91 -3.5,13z" fill="#4c5c71" id="svg_237"/>
  </g>
  <g id="svg_238">
   <path d="m325.5,368.5c0,-3 0,-6 0,-9c10.41,1.04 20.41,-0.46 30,-4.5c12.79,-7.48 25.96,-14.31 39.5,-20.5c3.54,0.51 6.71,1.84 9.5,4c0.71,2.53 1.38,5.03 2,7.5c-1.46,2.27 -2.29,4.77 -2.5,7.5c-1.83,1.17 -3.67,2.33 -5.5,3.5c-8.74,2.38 -17.57,2.88 -26.5,1.5c-6.6,1.77 -13.1,3.77 -19.5,6c-2.8,7.47 -4.97,15.14 -6.5,23c-4.05,9.43 -10.05,17.43 -18,24c-1.76,-10.64 -1.93,-21.31 -0.5,-32c0.05,-3.93 -0.62,-7.6 -2,-11z" fill="#5b6b80" id="svg_239"/>
  </g>
  <g id="svg_240">
   <path d="m207.5,329.5c-0.08,3.71 0.26,7.38 1,11c0.87,4.5 2.21,8.83 4,13c-8.08,1.75 -13.74,6.41 -17,14c-4,6.67 -8,13.33 -12,20c4.2,-12.74 8.7,-25.41 13.5,-38c3.24,-6.94 6.74,-13.61 10.5,-20z" fill="#5b6b80" id="svg_241"/>
  </g>
  <g id="svg_242">
   <path d="m212.5,312.5c0,0.67 0,1.33 0,2c-1.53,2.58 -2.86,5.25 -4,8c-0.62,-0.11 -1.12,-0.44 -1.5,-1c-6.09,7.48 -11.43,15.48 -16,24c-9.6,24.65 -19.1,49.32 -28.5,74c-2,0 -4,0 -6,0c10.46,-25.13 20.46,-50.47 30,-76c3.14,-7.61 7.3,-14.61 12.5,-21c4.08,-3.95 8.58,-7.29 13.5,-10z" fill="#435468" id="svg_243"/>
  </g>
  <g id="svg_244">
   <path d="m319.5,333.5c-3.08,1.97 -5.91,4.3 -8.5,7c-0.49,1.29 -0.66,2.63 -0.5,4c-0.67,0 -1.33,0 -2,0c0.1,-2.61 -0.57,-4.94 -2,-7c3.13,-1.07 5.8,-2.91 8,-5.5c2.17,-0.88 3.84,-0.38 5,1.5z" fill="#d2b49d" id="svg_245"/>
  </g>
  <g id="svg_246">
   <path d="m277.5,332.5c5.23,1.86 10.39,3.86 15.5,6c0.49,-1.63 0.66,-3.3 0.5,-5c3.2,3.3 6.87,4.3 11,3c0.67,0.33 1.33,0.67 2,1c1.43,2.06 2.1,4.39 2,7c0,0.67 0,1.33 0,2c-5.76,-2.04 -11.43,-4.38 -17,-7c-0.61,0.12 -0.94,0.46 -1,1c-4.17,-4.59 -9.17,-5.92 -15,-4c0.16,-1.65 0.83,-2.99 2,-4z" fill="#434f60" id="svg_247"/>
  </g>
  <g id="svg_248">
   <path d="m366.5,308.5c-3.06,4.57 -6.73,8.74 -11,12.5c-4.16,1.66 -7.16,4.49 -9,8.5c-11.47,6.73 -23.47,12.4 -36,17c0,-0.67 0,-1.33 0,-2c-0.16,-1.37 0.01,-2.71 0.5,-4c2.59,-2.7 5.42,-5.03 8.5,-7c0.33,0 0.67,0 1,0c1.6,1.06 3.27,1.06 5,0c-0.98,1.35 -2.32,2.35 -4,3c1.17,0.33 2.33,0.67 3.5,1c4.78,-1.14 9.28,-2.98 13.5,-5.5c9.88,-7.12 19.21,-14.95 28,-23.5z" fill="#435265" id="svg_249"/>
  </g>
  <g id="svg_250">
   <path d="m446.5,419.5c-2.33,0 -4.67,0 -7,0c-1.56,-11.53 -5.4,-22.19 -11.5,-32c-1.42,-5.1 -3.08,-10.1 -5,-15c-0.67,-0.67 -1.33,-1.33 -2,-2c-5.14,3.81 -10.31,7.64 -15.5,11.5c-1.33,0.67 -2.67,0.67 -4,0c1.88,-3.55 4.05,-7.38 6.5,-11.5c1.64,-3.24 2.64,-6.58 3,-10c-1.93,4.19 -4.09,8.19 -6.5,12c0.13,-0.74 -0.04,-1.41 -0.5,-2c-3.67,5.3 -7.33,10.63 -11,16c-1.41,10.94 -1.91,21.94 -1.5,33c-4,0 -8,0 -12,0c0.41,-13.38 3.57,-26.05 9.5,-38c4.33,-5.67 9.33,-10.67 15,-15c1.47,-3.24 2.64,-6.58 3.5,-10c2.8,-3.48 4.13,-7.48 4,-12c1.61,-4.09 2.77,-8.42 3.5,-13c1.1,-4 0.26,-7.5 -2.5,-10.5c-5.37,-2.23 -10.87,-4.07 -16.5,-5.5c-4.36,3.37 -9.19,6.2 -14.5,8.5c-6.46,7.77 -14.79,11.6 -25,11.5c3.05,-2.36 6.38,-4.36 10,-6c3.84,-1.61 7.84,-3.11 12,-4.5c6.11,-3.67 11.94,-7.5 17.5,-11.5c9.8,1.73 18.13,6.06 25,13c5.29,8.87 9.63,18.21 13,28c2.5,17.38 6.17,34.38 11,51c0.54,4.67 1.04,9.34 1.5,14z" fill="#425367" id="svg_251"/>
  </g>
  <g id="svg_252">
   <path d="m308.5,346.5c0.13,0.74 -0.04,1.41 -0.5,2c-3.75,-0.99 -7.58,-1.65 -11.5,-2c-1.67,0 -3.33,0 -5,0c0.18,-2.12 -0.16,-4.12 -1,-6c0.06,-0.54 0.39,-0.88 1,-1c5.57,2.62 11.24,4.96 17,7z" fill="#232f3e" id="svg_253"/>
  </g>
  <g id="svg_254">
   <path d="m388.5,297.5c3.65,3.29 4.99,7.29 4,12c-7.99,7.65 -16.66,14.32 -26,20c-3.62,1.64 -6.95,3.64 -10,6c-11.08,4.47 -22.41,8.14 -34,11c-3.95,0.19 -7.78,0.85 -11.5,2c-0.46,-0.59 -0.63,-1.26 -0.5,-2c12.53,-4.6 24.53,-10.27 36,-17c-5.64,4.16 -11.3,8.32 -17,12.5c2.34,0.17 4.68,-0.16 7,-1c6.44,-2.19 12.44,-5.02 18,-8.5c2.11,-1.28 4.44,-2.12 7,-2.5c5.21,-4.85 11.21,-8.52 18,-11c3.18,-3.35 6.51,-6.52 10,-9.5c0.74,-4.02 0.4,-8.02 -1,-12z" fill="#23303f" id="svg_255"/>
  </g>
  <g id="svg_256">
   <path d="m392.5,309.5c7.84,2.67 15.51,5.84 23,9.5c9.44,9.38 15.94,20.54 19.5,33.5c4.39,22.47 9.23,44.8 14.5,67c-1,0 -2,0 -3,0c-0.46,-4.66 -0.96,-9.33 -1.5,-14c-4.83,-16.62 -8.5,-33.62 -11,-51c-3.37,-9.79 -7.71,-19.13 -13,-28c-6.87,-6.94 -15.2,-11.27 -25,-13c-5.56,4 -11.39,7.83 -17.5,11.5c-4.16,1.39 -8.16,2.89 -12,4.5c9.34,-5.68 18.01,-12.35 26,-20z" fill="#2c3c4f" id="svg_257"/>
  </g>
  <g id="svg_258">
   <path d="m287.5,354.5c-0.54,1.62 -0.87,3.28 -1,5c-1.24,1.46 -2.24,3.13 -3,5c-2.36,2.18 -5.03,3.85 -8,5c-5.37,2.67 -11.04,3.5 -17,2.5c-5.9,-2.73 -11.9,-5.23 -18,-7.5c0,1.67 0,3.33 0,5c-2.36,0.16 -4.69,0 -7,-0.5c-6.45,-6.45 -12.95,-12.95 -19.5,-19.5c-1.75,-1.99 -2.75,-4.32 -3,-7c-0.71,-0.88 -1.54,-1.55 -2.5,-2c-0.74,-3.62 -1.08,-7.29 -1,-11c-0.28,-1.92 0.05,-3.58 1,-5c-0.41,3.55 0.09,6.88 1.5,10c0.52,-5.75 1.52,-11.42 3,-17c0.67,2 1.33,4 2,6c3.44,3.11 6.11,6.77 8,11c8.22,5.21 14.72,12.05 19.5,20.5c4.35,1.52 8.35,3.69 12,6.5c1.12,2.61 2.78,4.78 5,6.5c5,0.67 10,0.67 15,0c5.32,-3.81 9.65,-8.31 13,-13.5z" fill="#a57c5b" id="svg_259"/>
  </g>
  <g id="svg_260">
   <path d="m282.5,356.5c1.93,-2.4 3.43,-5.06 4.5,-8c2.61,-8.71 -0.55,-12.55 -9.5,-11.5c-2.05,3.98 -4.39,7.81 -7,11.5c-0.75,-1.64 -1.42,-3.64 -2,-6c0.17,-1.33 0.33,-2.67 0.5,-4c3.44,-5.77 6.44,-11.77 9,-18c0.56,-2.38 0.39,-4.72 -0.5,-7c0.33,0 0.67,0 1,0c1.79,2.76 2.29,5.76 1.5,9c-5.01,6.68 -8.34,14.01 -10,22c1.27,-3.1 3.11,-5.76 5.5,-8c5.83,-1.92 10.83,-0.59 15,4c0.84,1.88 1.18,3.88 1,6c-1.16,2.83 -2.49,5.5 -4,8c-3.35,5.19 -7.68,9.69 -13,13.5c-5,0.67 -10,0.67 -15,0c-2.22,-1.72 -3.88,-3.89 -5,-6.5c-3.65,-2.81 -7.65,-4.98 -12,-6.5c-4.78,-8.45 -11.28,-15.29 -19.5,-20.5c-1.89,-4.23 -4.56,-7.89 -8,-11c-0.67,-2 -1.33,-4 -2,-6c-1.48,5.58 -2.48,11.25 -3,17c-1.41,-3.12 -1.91,-6.45 -1.5,-10c0,-0.67 0,-1.33 0,-2c1.14,-2.75 2.47,-5.42 4,-8c0.62,-0.11 1.12,-0.44 1.5,-1c0.33,2 0.67,4 1,6c4.68,7.19 10.18,13.69 16.5,19.5c1.59,0.86 3.25,1.53 5,2c2,2.67 4,5.33 6,8c5.87,0.94 11.54,2.6 17,5c0.76,2.07 1.26,4.24 1.5,6.5c4.85,3.78 10.35,4.95 16.5,3.5c2.7,-1.86 4.37,-4.36 5,-7.5z" fill="#c29c7d" id="svg_261"/>
  </g>
  <g id="svg_262">
   <path d="m278.5,339.5c4.61,-0.2 6.61,1.96 6,6.5c-0.66,4.62 -2.49,8.79 -5.5,12.5c-3.61,2.88 -6.78,2.38 -9.5,-1.5c-1.63,-0.49 -3.3,-0.66 -5,-0.5c-0.23,-2.75 0.11,-5.42 1,-8c0.5,-0.33 1,-0.67 1.5,-1c1.93,1.68 4.1,2.18 6.5,1.5c1.15,-3.5 2.82,-6.66 5,-9.5z" fill="#f9d8bd" id="svg_263"/>
  </g>
  <g id="svg_264">
   <path d="m250.5,330.5c0.33,0 0.67,0 1,0c3.79,0.69 6.95,-0.31 9.5,-3c1.05,-3.76 2.38,-7.43 4,-11c2.13,-2.96 4.79,-3.62 8,-2c1.48,3.2 1.82,6.54 1,10c-3.25,3.49 -5.75,7.49 -7.5,12c-0.82,2.95 -1.32,5.95 -1.5,9c-3.96,3.43 -8.13,3.76 -12.5,1c-0.39,-4.35 -2.72,-6.02 -7,-5c-0.16,-1.37 0.01,-2.71 0.5,-4c2.02,-2.05 3.52,-4.38 4.5,-7z" fill="#f8d8bc" id="svg_265"/>
  </g>
  <g id="svg_266">
   <path d="m407.5,356.5c-0.86,3.42 -2.03,6.76 -3.5,10c-5.67,4.33 -10.67,9.33 -15,15c-5.93,11.95 -9.09,24.62 -9.5,38c-9.67,0 -19.33,0 -29,0c2.19,-8.73 4.69,-17.4 7.5,-26c1,-1.67 2,-3.33 3,-5c4.08,-1.31 7.91,-3.14 11.5,-5.5c7.66,-7.99 16.66,-13.99 27,-18c2.56,-2.96 5.23,-5.8 8,-8.5z" fill="#4e5e73" id="svg_267"/>
  </g>
  <g id="svg_268">
   <path d="m215.5,358.5c1.87,1.4 2.21,3.06 1,5c-3.09,5.86 -6.43,11.52 -10,17c-1.38,1.21 -2.55,0.87 -3.5,-1c-6.66,-13.34 -2.49,-20.34 12.5,-21z" fill="#232f3d" id="svg_269"/>
  </g>
  <g id="svg_270">
   <path d="m186.5,343.5c-9.54,25.53 -19.54,50.87 -30,76c-0.67,0 -1.33,0 -2,0c8.76,-21.19 17.26,-42.53 25.5,-64c1.52,-4.46 3.69,-8.46 6.5,-12z" fill="#2c3c4f" id="svg_271"/>
  </g>
  <g id="svg_272">
   <path d="m208.5,340.5c0.96,0.45 1.79,1.12 2.5,2c0.25,2.68 1.25,5.01 3,7c6.55,6.55 13.05,13.05 19.5,19.5c2.31,0.5 4.64,0.66 7,0.5c0,-1.67 0,-3.33 0,-5c6.1,2.27 12.1,4.77 18,7.5c5.96,1 11.63,0.17 17,-2.5c0.13,0.88 -0.2,1.54 -1,2c-2.78,0.89 -5.45,2.06 -8,3.5c-5.92,0.18 -11.75,0.35 -17.5,0.5c-4.17,-0.9 -8.34,-1.4 -12.5,-1.5c-0.67,0.33 -1.33,0.67 -2,1c3.22,1.71 5.55,4.21 7,7.5c-1.67,-0.67 -3.33,-1.33 -5,-2c-1.59,-2.13 -3.59,-3.8 -6,-5c-4.35,-4.35 -9.01,-8.35 -14,-12c1.21,-1.94 0.87,-3.6 -1,-5c-0.75,-1.83 -1.75,-3.5 -3,-5c-1.79,-4.17 -3.13,-8.5 -4,-13z" fill="#9a704d" id="svg_273"/>
  </g>
  <g id="svg_274">
   <path d="m283.5,364.5c-2.52,7.17 -6.85,12.84 -13,17c-1.78,0.39 -3.45,1.06 -5,2c-4.37,0.38 -8.7,1.04 -13,2c-1.29,2.24 -2.29,4.57 -3,7c-1.94,1.75 -4.27,2.75 -7,3c2.93,-4.65 2.59,-8.98 -1,-13c-1.45,-3.29 -3.78,-5.79 -7,-7.5c0.67,-0.33 1.33,-0.67 2,-1c4.16,0.1 8.33,0.6 12.5,1.5c5.75,-0.15 11.58,-0.32 17.5,-0.5c2.55,-1.44 5.22,-2.61 8,-3.5c0.8,-0.46 1.13,-1.12 1,-2c2.97,-1.15 5.64,-2.82 8,-5z" fill="#926844" id="svg_275"/>
  </g>
  <g id="svg_276">
   <path d="m286.5,359.5c2.33,0 4.67,0 7,0c-0.51,14.32 -0.51,28.66 0,43c-0.71,2.31 -1.71,4.48 -3,6.5c-5.32,-2.97 -9.82,-7.14 -13.5,-12.5c-2.85,-4.71 -5.01,-9.71 -6.5,-15c6.15,-4.16 10.48,-9.83 13,-17c0.76,-1.87 1.76,-3.54 3,-5z" fill="#5c6c80" id="svg_277"/>
  </g>
  <g id="svg_278">
   <path d="m216.5,363.5c4.99,3.65 9.65,7.65 14,12c-2.76,-0.88 -5.43,-2.05 -8,-3.5c-1.67,-0.67 -3.33,-0.67 -5,0c-3.61,3.41 -6.61,7.24 -9,11.5c-1.41,-0.47 -2.07,-1.47 -2,-3c3.57,-5.48 6.91,-11.14 10,-17z" fill="#cca687" id="svg_279"/>
  </g>
  <g id="svg_280">
   <path d="m308.5,344.5c0.67,0 1.33,0 2,0c0,0.67 0,1.33 0,2c-0.13,0.74 0.04,1.41 0.5,2c3.72,-1.15 7.55,-1.81 11.5,-2c0.42,24.33 0.75,48.67 1,73c-0.67,0 -1.33,0 -2,0c0.3,-22.7 -0.03,-45.37 -1,-68c-3.55,0.45 -6.88,1.45 -10,3c-0.5,14.65 -1.34,14.65 -2.5,0c-2.57,-2.85 -5.57,-3.51 -9,-2c-1.32,22.31 -1.82,44.64 -1.5,67c-0.67,0 -1.33,0 -2,0c-0.16,-24.34 0.17,-48.68 1,-73c3.92,0.35 7.75,1.01 11.5,2c0.46,-0.59 0.63,-1.26 0.5,-2c0,-0.67 0,-1.33 0,-2z" fill="#2f3032" id="svg_281"/>
  </g>
  <g id="svg_282">
   <path d="m321.5,419.5c-1.33,0 -2.67,0 -4,0c0.16,-2.03 0,-4.03 -0.5,-6c-2.02,-3.05 -3.85,-6.21 -5.5,-9.5c1.94,-2.04 3.78,-4.21 5.5,-6.5c0.67,-3.33 0.67,-6.67 0,-10c-1.3,-1.06 -2.47,-2.23 -3.5,-3.5c3.68,-4.92 4.85,-10.42 3.5,-16.5c-1.44,-0.76 -2.94,-1.43 -4.5,-2c-0.61,0.12 -0.94,0.46 -1,1c-5,-1 -7,1 -6,6c-1.73,3.13 -0.9,5.46 2.5,7c0.5,1.97 0.66,3.97 0.5,6c-2.47,1.19 -3.47,3.19 -3,6c-0.72,-0.42 -1.22,-1.08 -1.5,-2c-0.67,2.67 -0.67,5.33 0,8c1.33,0.67 2.67,1.33 4,2c0.5,3.99 0.67,7.99 0.5,12c-3.29,1.89 -4.29,4.56 -3,8c-2.67,0 -5.33,0 -8,0c-0.32,-22.36 0.18,-44.69 1.5,-67c3.43,-1.51 6.43,-0.85 9,2c1.16,14.65 2,14.65 2.5,0c3.12,-1.55 6.45,-2.55 10,-3c0.97,22.63 1.3,45.3 1,68z" fill="#454545" id="svg_283"/>
  </g>
  <g id="svg_284">
   <path d="m311.5,366.5c0.06,-0.54 0.39,-0.88 1,-1c1.56,0.57 3.06,1.24 4.5,2c1.35,6.08 0.18,11.58 -3.5,16.5c1.03,1.27 2.2,2.44 3.5,3.5c0.67,3.33 0.67,6.67 0,10c-1.72,2.29 -3.56,4.46 -5.5,6.5c1.65,3.29 3.48,6.45 5.5,9.5c0.5,1.97 0.66,3.97 0.5,6c-1.33,0 -2.67,0 -4,0c1.16,-4.68 -0.51,-7.34 -5,-8c0.17,-4.01 0,-8.01 -0.5,-12c-1.33,-0.67 -2.67,-1.33 -4,-2c-0.67,-2.67 -0.67,-5.33 0,-8c0.28,0.92 0.78,1.58 1.5,2c-0.09,1 0.25,1.83 1,2.5c6.17,1.83 8.33,-0.33 6.5,-6.5c-1.11,-1.54 -2.61,-2.2 -4.5,-2c0.16,-2.03 0,-4.03 -0.5,-6c-3.4,-1.54 -4.23,-3.87 -2.5,-7c0.11,0.62 0.44,1.12 1,1.5c2,0.67 4,0.67 6,0c0.6,-1.06 0.93,-2.23 1,-3.5c0.16,-1.86 -0.51,-3.19 -2,-4z" fill="#393939" id="svg_285"/>
  </g>
  <g id="svg_286">
   <path d="m311.5,366.5c1.49,0.81 2.16,2.14 2,4c-0.07,1.27 -0.4,2.44 -1,3.5c-2,0.67 -4,0.67 -6,0c-0.56,-0.38 -0.89,-0.88 -1,-1.5c-1,-5 1,-7 6,-6z" fill="#737373" id="svg_287"/>
  </g>
  <g id="svg_288">
   <path d="m212.5,354.5c1.25,1.5 2.25,3.17 3,5c-14.99,0.66 -19.16,7.66 -12.5,21c0.95,1.87 2.12,2.21 3.5,1c-0.07,1.53 0.59,2.53 2,3c7.35,7.5 16.35,11.5 27,12c2.33,0 4.67,0 7,0c2.73,-0.25 5.06,-1.25 7,-3c-0.03,1 0.47,1.66 1.5,2c2.88,-1.77 4.71,-1.1 5.5,2c0.13,0.74 -0.04,1.41 -0.5,2c-0.69,1.24 -1.19,1.24 -1.5,0c-0.95,-0.65 -2.12,-0.99 -3.5,-1c-9.82,0.99 -19.65,1.82 -29.5,2.5c-1.17,1.17 -2.33,2.33 -3.5,3.5c-1.17,5.35 -2.34,10.68 -3.5,16c-10,0 -20,0 -30,0c-2.55,-4.7 -3.38,-9.7 -2.5,-15c3.73,-8.45 7.73,-16.79 12,-25c1.87,-4.04 2.37,-8.04 1.5,-12c3.26,-7.59 8.92,-12.25 17,-14z" fill="#49586c" id="svg_289"/>
  </g>
  <g id="svg_290">
   <path d="m291.5,346.5c1.67,0 3.33,0 5,0c-0.83,24.32 -1.16,48.66 -1,73c-14.67,0 -29.33,0 -44,0c5.27,-10.27 9.6,-20.94 13,-32c0.73,-1.21 1.07,-2.54 1,-4c1.55,-0.94 3.22,-1.61 5,-2c1.49,5.29 3.65,10.29 6.5,15c3.68,5.36 8.18,9.53 13.5,12.5c1.29,-2.02 2.29,-4.19 3,-6.5c-0.51,-14.34 -0.51,-28.68 0,-43c-2.33,0 -4.67,0 -7,0c0.13,-1.72 0.46,-3.38 1,-5c1.51,-2.5 2.84,-5.17 4,-8z" fill="#56667a" id="svg_291"/>
  </g>
  <g id="svg_292">
   <path d="m230.5,375.5c2.41,1.2 4.41,2.87 6,5c1.69,1.99 3.03,4.16 4,6.5c-1.43,2.94 -3.1,5.78 -5,8.5c-10.65,-0.5 -19.65,-4.5 -27,-12c2.39,-4.26 5.39,-8.09 9,-11.5c1.67,-0.67 3.33,-0.67 5,0c2.57,1.45 5.24,2.62 8,3.5z" fill="#debb9c" id="svg_293"/>
  </g>
  <g id="svg_294">
   <path d="m265.5,383.5c0.07,1.46 -0.27,2.79 -1,4c-1.21,4.21 -3.88,7.21 -8,9c-0.79,-3.1 -2.62,-3.77 -5.5,-2c-1.03,-0.34 -1.53,-1 -1.5,-2c0.71,-2.43 1.71,-4.76 3,-7c4.3,-0.96 8.63,-1.62 13,-2z" fill="#3f4d60" id="svg_295"/>
  </g>
  <g id="svg_296">
   <path d="m439.5,419.5c-14.33,0 -28.67,0 -43,0c-1.41,-10.36 -1.25,-20.69 0.5,-31c1.71,-5.75 4.21,-11.09 7.5,-16c2.41,-3.81 4.57,-7.81 6.5,-12c-0.36,3.42 -1.36,6.76 -3,10c-2.45,4.12 -4.62,7.95 -6.5,11.5c1.33,0.67 2.67,0.67 4,0c5.19,-3.86 10.36,-7.69 15.5,-11.5c0.67,0.67 1.33,1.33 2,2c1.92,4.9 3.58,9.9 5,15c6.1,9.81 9.94,20.47 11.5,32z" fill="#4d5d72" id="svg_297"/>
  </g>
  <g id="svg_298">
   <path d="m404.5,372.5c-3.29,4.91 -5.79,10.25 -7.5,16c-1.75,10.31 -1.91,20.64 -0.5,31c-1.67,0 -3.33,0 -5,0c-0.41,-11.06 0.09,-22.06 1.5,-33c3.67,-5.37 7.33,-10.7 11,-16c0.46,0.59 0.63,1.26 0.5,2z" fill="#334355" id="svg_299"/>
  </g>
  <g id="svg_300">
   <path d="m236.5,380.5c1.67,0.67 3.33,1.33 5,2c3.59,4.02 3.93,8.35 1,13c-2.33,0 -4.67,0 -7,0c1.9,-2.72 3.57,-5.56 5,-8.5c-0.97,-2.34 -2.31,-4.51 -4,-6.5z" fill="#b99273" id="svg_301"/>
  </g>
  <g id="svg_302">
   <path d="m308.5,385.5c1.89,-0.2 3.39,0.46 4.5,2c1.83,6.17 -0.33,8.33 -6.5,6.5c-0.75,-0.67 -1.09,-1.5 -1,-2.5c-0.47,-2.81 0.53,-4.81 3,-6z" fill="#747474" id="svg_303"/>
  </g>
  <g id="svg_304">
   <path d="m254.5,398.5c-1.96,1.46 -3.8,3.13 -5.5,5c-2.46,5.25 -4.63,10.58 -6.5,16c-9.33,0 -18.67,0 -28,0c1.16,-5.32 2.33,-10.65 3.5,-16c1.17,-1.17 2.33,-2.33 3.5,-3.5c9.85,-0.68 19.68,-1.51 29.5,-2.5c1.38,0.01 2.55,0.35 3.5,1z" fill="#38475a" id="svg_305"/>
  </g>
  <g id="svg_306">
   <path d="m264.5,387.5c-3.4,11.06 -7.73,21.73 -13,32c-3,0 -6,0 -9,0c1.87,-5.42 4.04,-10.75 6.5,-16c1.7,-1.87 3.54,-3.54 5.5,-5c0.31,1.24 0.81,1.24 1.5,0c0.46,-0.59 0.63,-1.26 0.5,-2c4.12,-1.79 6.79,-4.79 8,-9z" fill="#263444" id="svg_307"/>
  </g>
  <g id="svg_308">
   <path d="m195.5,367.5c0.87,3.96 0.37,7.96 -1.5,12c-4.27,8.21 -8.27,16.55 -12,25c-0.88,5.3 -0.05,10.3 2.5,15c-6,0 -12,0 -18,0c5.7,-10.69 11.37,-21.36 17,-32c4,-6.67 8,-13.33 12,-20z" fill="#3a4a5e" id="svg_309"/>
  </g>
  <g id="svg_310">
   <path d="m308.5,411.5c4.49,0.66 6.16,3.32 5,8c-2.67,0 -5.33,0 -8,0c-1.29,-3.44 -0.29,-6.11 3,-8z" fill="#737373" id="svg_311"/>
  </g>
  <defs>
    <linearGradient id="grad1" x1="-6.8767e-06" y1="121.001" x2="392.834" y2="443.378" gradientUnits="userSpaceOnUse">
      <!-- Start semi-transparent purple -->
      <stop stop-color="#C6A0F6" stop-opacity="0.5" />
      <!-- End semi-transparent blue -->
      <stop offset="1" stop-color="#8AADF4" stop-opacity="0.5" />
    </linearGradient>
  </defs>
</svg>
